<?plantuml 1.2026.2?><svg xmlns="http://www.w3.org/2000/svg" xmlns:xlink="http://www.w3.org/1999/xlink" contentStyleType="text/css" data-diagram-type="ACTIVITY" height="1963px" preserveAspectRatio="none" style="width:632px;height:1963px;background:#FEFEFE;" version="1.1" viewBox="0 0 632 1963" width="632px" zoomAndPan="magnify"><title>Industry AI Flow &#8212; Main Request Flow
(UML Activity Diagram)</title><defs/><g><rect fill="#FEFEFE" height="1963" style="stroke:none;stroke-width:1;" width="632" x="0" y="0"/><g class="title" data-source-line="18"><text fill="#000000" font-family="sans-serif" font-size="14" font-weight="bold" lengthAdjust="spacing" textLength="277.0947" x="176.1051" y="33.5352">Industry AI Flow &#8212; Main Request Flow</text><text fill="#000000" font-family="sans-serif" font-size="14" font-weight="bold" lengthAdjust="spacing" textLength="166.7354" x="231.2848" y="50.0234">(UML Activity Diagram)</text></g><ellipse cx="310.1525" cy="73.9766" fill="#222222" rx="10" ry="10" style="stroke:#222222;stroke-width:1;"/><rect fill="#F1F1F1" height="32.9551" rx="12.5" ry="12.5" style="stroke:#444444;stroke-width:0.5;" width="223.0435" x="198.6307" y="103.9766"/><text fill="#000000" font-family="sans-serif" font-size="11" lengthAdjust="spacing" textLength="203.0435" x="208.6307" y="124.6113">User submits query via Workflow Chat</text><rect fill="#E8F0FE" height="94.3984" style="stroke:#000000;stroke-width:1.5;" width="208.7866" x="205.7592" y="146.9316"/><path d="M338.1429,146.9316 L338.1429,156.4199 L328.1429,166.4199 L205.7592,166.4199" fill="none" style="stroke:#000000;stroke-width:1.5;"/><text fill="#000000" font-family="sans-serif" font-size="14" lengthAdjust="spacing" textLength="122.3838" x="208.7592" y="161.4668">Frontend (Next.js)</text><rect fill="#F1F1F1" height="45.9102" rx="12.5" ry="12.5" style="stroke:#444444;stroke-width:0.5;" width="188.7866" x="215.7592" y="183.4199"/><text fill="#000000" font-family="sans-serif" font-size="11" lengthAdjust="spacing" textLength="156.8789" x="225.7592" y="204.0547">API Proxy forwards to FastAPI</text><text fill="#000000" font-family="sans-serif" font-size="11" lengthAdjust="spacing" textLength="168.7866" x="225.7592" y="217.0098">(POST /api/v1/workflow/query)</text><rect fill="#E8F5E9" height="107.3535" style="stroke:#000000;stroke-width:1.5;" width="195.6758" x="212.3146" y="251.3301"/><path d="M353.8448,251.3301 L353.8448,260.8184 L343.8448,270.8184 L212.3146,270.8184" fill="none" style="stroke:#000000;stroke-width:1.5;"/><text fill="#000000" font-family="sans-serif" font-size="14" lengthAdjust="spacing" textLength="131.5303" x="215.3146" y="265.8652">Request Processing</text><rect fill="#F1F1F1" height="58.8652" rx="12.5" ry="12.5" style="stroke:#444444;stroke-width:0.5;" width="175.6758" x="222.3146" y="287.8184"/><text fill="#000000" font-family="sans-serif" font-size="11" lengthAdjust="spacing" textLength="127.0049" x="232.3146" y="308.4531">Extract X-Tenant-ID via</text><text fill="#000000" font-family="sans-serif" font-size="11" lengthAdjust="spacing" textLength="155.6758" x="232.3146" y="321.4082">secure_endpoint dependency</text><text fill="#000000" font-family="sans-serif" font-size="11" lengthAdjust="spacing" textLength="124.3301" x="232.3146" y="334.3633">(multi-tenant isolation)</text><rect fill="#E8F5E9" height="487.1738" style="stroke:#000000;stroke-width:1.5;" width="500.7534" x="120.5515" y="368.6836"/><path d="M265.1169,368.6836 L265.1169,378.1719 L255.1169,388.1719 L120.5515,388.1719" fill="none" style="stroke:#000000;stroke-width:1.5;"/><text fill="#000000" font-family="sans-serif" font-size="14" lengthAdjust="spacing" textLength="134.5654" x="123.5515" y="383.2188">Intent Classification</text><rect fill="#F1F1F1" height="32.9551" rx="12.5" ry="12.5" style="stroke:#444444;stroke-width:0.5;" width="185.7358" x="217.2845" y="405.1719"/><text fill="#000000" font-family="sans-serif" font-size="11" lengthAdjust="spacing" textLength="165.7358" x="227.2845" y="425.8066">Parse input &amp; extract keywords</text><polygon fill="#F1F1F1" points="229.0248,458.127,391.2802,458.127,403.2802,470.127,391.2802,482.127,229.0248,482.127,217.0248,470.127,229.0248,458.127" style="stroke:#444444;stroke-width:0.5;"/><text fill="#000000" font-family="sans-serif" font-size="11" lengthAdjust="spacing" textLength="162.2554" x="229.0248" y="474.2842">Heuristic confidence &gt;= 0.85?</text><text fill="#000000" font-family="sans-serif" font-size="11" lengthAdjust="spacing" textLength="17.4829" x="199.5419" y="467.8066">yes</text><text fill="#000000" font-family="sans-serif" font-size="11" lengthAdjust="spacing" textLength="13.5835" x="403.2802" y="467.8066">no</text><rect fill="#F1F1F1" height="45.9102" rx="12.5" ry="12.5" style="stroke:#444444;stroke-width:0.5;" width="115.1167" x="140.5515" y="492.127"/><text fill="#000000" font-family="sans-serif" font-size="11" lengthAdjust="spacing" textLength="95.1167" x="150.5515" y="512.7617">Heuristic shortcut</text><text fill="#000000" font-family="sans-serif" font-size="11" lengthAdjust="spacing" textLength="75.5283" x="150.5515" y="525.7168">(skip LLM call)</text><rect fill="#F1F1F1" height="45.9102" rx="12.5" ry="12.5" style="stroke:#444444;stroke-width:0.5;" width="153.7349" x="345.3276" y="492.127"/><text fill="#000000" font-family="sans-serif" font-size="11" lengthAdjust="spacing" textLength="88.2793" x="355.3276" y="512.7617">Send to Zhipu AI</text><text fill="#000000" font-family="sans-serif" font-size="11" lengthAdjust="spacing" textLength="133.7349" x="355.3276" y="525.7168">(cloud LLM classification)</text><polygon fill="#F1F1F1" points="357.5701,558.0371,486.8201,558.0371,498.8201,570.0371,486.8201,582.0371,357.5701,582.0371,345.5701,570.0371,357.5701,558.0371" style="stroke:#444444;stroke-width:0.5;"/><text fill="#000000" font-family="sans-serif" font-size="11" lengthAdjust="spacing" textLength="129.25" x="357.5701" y="574.1943">LLM confidence &gt;= 0.8?</text><text fill="#000000" font-family="sans-serif" font-size="11" lengthAdjust="spacing" textLength="17.4829" x="328.0872" y="567.7168">yes</text><text fill="#000000" font-family="sans-serif" font-size="11" lengthAdjust="spacing" textLength="13.5835" x="498.8201" y="567.7168">no</text><rect fill="#F1F1F1" height="32.9551" rx="12.5" ry="12.5" style="stroke:#444444;stroke-width:0.5;" width="99.8037" x="285.6682" y="592.0371"/><text fill="#000000" font-family="sans-serif" font-size="11" lengthAdjust="spacing" textLength="79.8037" x="295.6682" y="612.6719">Route to intent</text><rect fill="#F1F1F1" height="32.9551" rx="12.5" ry="12.5" style="stroke:#444444;stroke-width:0.5;" width="141.2686" x="438.1858" y="592.0371"/><text fill="#000000" font-family="sans-serif" font-size="11" lengthAdjust="spacing" textLength="121.2686" x="448.1858" y="612.6719">Multi-turn clarification</text><rect fill="#F1F1F1" height="32.9551" rx="12.5" ry="12.5" style="stroke:#444444;stroke-width:0.5;" width="185.3706" x="416.1348" y="644.9922"/><text fill="#000000" font-family="sans-serif" font-size="11" lengthAdjust="spacing" textLength="165.3706" x="426.1348" y="665.627">Re-classify after user response</text><polygon fill="#F1F1F1" points="422.1951,683.9473,434.1951,695.9473,422.1951,707.9473,410.1951,695.9473,422.1951,683.9473" style="stroke:#444444;stroke-width:0.5;"/><polygon fill="#F1F1F1" points="310.1525,713.9473,322.1525,725.9473,310.1525,737.9473,298.1525,725.9473,310.1525,713.9473" style="stroke:#444444;stroke-width:0.5;"/><rect fill="#F1F1F1" height="32.9551" rx="12.5" ry="12.5" style="stroke:#444444;stroke-width:0.5;" width="128.3887" x="245.9581" y="757.9473"/><text fill="#000000" font-family="sans-serif" font-size="11" lengthAdjust="spacing" textLength="108.3887" x="255.9581" y="778.582">Query reformulation</text><rect fill="#F1F1F1" height="32.9551" rx="12.5" ry="12.5" style="stroke:#444444;stroke-width:0.5;" width="153.6167" x="233.3441" y="810.9023"/><text fill="#000000" font-family="sans-serif" font-size="11" lengthAdjust="spacing" textLength="133.6167" x="243.3441" y="831.5371">Final intent + confidence</text><rect fill="#F3E5F5" height="914.2305" style="stroke:#000000;stroke-width:1.5;" width="598.3049" x="11" y="865.8574"/><path d="M284.3818,865.8574 L284.3818,875.3457 L274.3818,885.3457 L11,885.3457" fill="none" style="stroke:#000000;stroke-width:1.5;"/><text fill="#000000" font-family="sans-serif" font-size="14" lengthAdjust="spacing" textLength="263.3818" x="14" y="880.3926">10-Node Execution Pipeline (graph.py)</text><rect fill="#ADD8E6" height="32.9551" rx="12.5" ry="12.5" style="stroke:#444444;stroke-width:0.5;" width="131.8208" x="244.2421" y="902.3457"/><text fill="#000000" font-family="sans-serif" font-size="11" font-weight="bold" lengthAdjust="spacing" textLength="52.4917" x="254.2421" y="922.9805">[1] Intent</text><text fill="#000000" font-family="sans-serif" font-size="11" lengthAdjust="spacing" textLength="55.8486" x="310.2142" y="922.9805">&#8212; validate</text><rect fill="#ADD8E6" height="32.9551" rx="12.5" ry="12.5" style="stroke:#444444;stroke-width:0.5;" width="166.1582" x="227.0734" y="955.3008"/><text fill="#000000" font-family="sans-serif" font-size="11" font-weight="bold" lengthAdjust="spacing" textLength="53.6626" x="237.0734" y="975.9355">[2] Safety</text><text fill="#000000" font-family="sans-serif" font-size="11" lengthAdjust="spacing" textLength="89.0151" x="294.2164" y="975.9355">&#8212; content check</text><rect fill="#ADD8E6" height="32.9551" rx="12.5" ry="12.5" style="stroke:#444444;stroke-width:0.5;" width="208.9014" x="205.7018" y="1008.2559"/><text fill="#000000" font-family="sans-serif" font-size="11" font-weight="bold" lengthAdjust="spacing" textLength="108.48" x="215.7018" y="1028.8906">[3] Cost Estimation</text><text fill="#000000" font-family="sans-serif" font-size="11" lengthAdjust="spacing" textLength="76.9409" x="327.6622" y="1028.8906">&#8212; route check</text><polygon fill="#F1F1F1" points="279.0458,1061.2109,341.2592,1061.2109,353.2592,1073.2109,341.2592,1085.2109,279.0458,1085.2109,267.0458,1073.2109,279.0458,1061.2109" style="stroke:#444444;stroke-width:0.5;"/><text fill="#000000" font-family="sans-serif" font-size="11" lengthAdjust="spacing" textLength="62.2134" x="279.0458" y="1077.3682">Intent type?</text><rect fill="#E3F2FD" height="71.8203" rx="12.5" ry="12.5" style="stroke:#444444;stroke-width:0.5;" width="142.2192" x="34.5298" y="1121.1211"/><text fill="#000000" font-family="sans-serif" font-size="11" font-weight="bold" lengthAdjust="spacing" textLength="69.1206" x="44.5298" y="1141.7559">[4] Retrieval</text><text fill="#000000" font-family="sans-serif" font-size="11" lengthAdjust="spacing" textLength="77.0913" x="44.5298" y="1154.7109">Hybrid search:</text><text fill="#000000" font-family="sans-serif" font-size="11" lengthAdjust="spacing" textLength="115.2583" x="51.4907" y="1167.666">BM25 + Vector + RRF</text><text fill="#000000" font-family="sans-serif" font-size="11" lengthAdjust="spacing" textLength="57.1162" x="51.4907" y="1180.6211">(TOP_K=8)</text><rect fill="#E3F2FD" height="58.8652" rx="12.5" ry="12.5" style="stroke:#444444;stroke-width:0.5;" width="140.2158" x="35.5315" y="1227.9414"/><text fill="#000000" font-family="sans-serif" font-size="11" font-weight="bold" lengthAdjust="spacing" textLength="58.7222" x="45.5315" y="1248.5762">[5] Rerank</text><text fill="#000000" font-family="sans-serif" font-size="11" lengthAdjust="spacing" textLength="102.4644" x="45.5315" y="1261.5313">bge-reranker-base</text><text fill="#000000" font-family="sans-serif" font-size="11" lengthAdjust="spacing" textLength="120.2158" x="45.5315" y="1274.4863">cross-encoder scoring</text><rect fill="#E3F2FD" height="58.8652" rx="12.5" ry="12.5" style="stroke:#444444;stroke-width:0.5;" width="169.2788" x="21" y="1321.8066"/><text fill="#000000" font-family="sans-serif" font-size="11" font-weight="bold" lengthAdjust="spacing" textLength="60.2207" x="31" y="1342.4414">[6] Prompt</text><text fill="#000000" font-family="sans-serif" font-size="11" lengthAdjust="spacing" textLength="131.3662" x="31" y="1355.3965">Assemble with chunks +</text><text fill="#000000" font-family="sans-serif" font-size="11" lengthAdjust="spacing" textLength="149.2788" x="31" y="1368.3516">memory + prompt template</text><rect fill="#E3F2FD" height="58.8652" rx="12.5" ry="12.5" style="stroke:#444444;stroke-width:0.5;" width="146.4731" x="32.4028" y="1415.6719"/><text fill="#000000" font-family="sans-serif" font-size="11" font-weight="bold" lengthAdjust="spacing" textLength="51.7773" x="42.4028" y="1436.3066">[7] Route</text><text fill="#000000" font-family="sans-serif" font-size="11" lengthAdjust="spacing" textLength="104.2153" x="42.4028" y="1449.2617">Select LLM backend</text><text fill="#000000" font-family="sans-serif" font-size="11" lengthAdjust="spacing" textLength="126.4731" x="42.4028" y="1462.2168">(Ollama / Zhipu / Groq)</text><rect fill="#F1F1F1" height="45.9102" rx="12.5" ry="12.5" style="stroke:#444444;stroke-width:0.5;" width="149.0137" x="31.1326" y="1494.5371"/><text fill="#000000" font-family="sans-serif" font-size="11" lengthAdjust="spacing" textLength="129.0137" x="41.1326" y="1515.1719">LLM generates response</text><text fill="#000000" font-family="sans-serif" font-size="11" lengthAdjust="spacing" textLength="110.4995" x="41.1326" y="1528.127">with source citations</text><rect fill="#FFF8E1" height="45.9102" rx="12.5" ry="12.5" style="stroke:#444444;stroke-width:0.5;" width="172.1899" x="232.3469" y="1121.1211"/><text fill="#000000" font-family="sans-serif" font-size="11" lengthAdjust="spacing" textLength="124.937" x="242.3469" y="1141.7559">Extract project features</text><text fill="#000000" font-family="sans-serif" font-size="11" lengthAdjust="spacing" textLength="152.1899" x="242.3469" y="1154.7109">(14 numeric + 2 categorical)</text><rect fill="#FFF8E1" height="45.9102" rx="12.5" ry="12.5" style="stroke:#444444;stroke-width:0.5;" width="163.7949" x="236.5444" y="1202.0313"/><text fill="#000000" font-family="sans-serif" font-size="11" lengthAdjust="spacing" textLength="143.7949" x="246.5444" y="1222.666">CatBoost predict overrun %</text><text fill="#000000" font-family="sans-serif" font-size="11" lengthAdjust="spacing" textLength="131.9087" x="246.5444" y="1235.6211">Ridge predict actual cost</text><rect fill="#FFF8E1" height="45.9102" rx="12.5" ry="12.5" style="stroke:#444444;stroke-width:0.5;" width="125.3271" x="255.7783" y="1282.9414"/><text fill="#000000" font-family="sans-serif" font-size="11" lengthAdjust="spacing" textLength="105.3271" x="265.7783" y="1303.5762">SHAP Top-5 factors</text><text fill="#000000" font-family="sans-serif" font-size="11" lengthAdjust="spacing" textLength="98.0171" x="265.7783" y="1316.5313">+ What-if analysis</text><rect fill="#FFF8E1" height="32.9551" rx="12.5" ry="12.5" style="stroke:#444444;stroke-width:0.5;" width="155.1367" x="240.8735" y="1363.8516"/><text fill="#000000" font-family="sans-serif" font-size="11" lengthAdjust="spacing" textLength="135.1367" x="250.8735" y="1384.4863">Similar project lookup (5)</text><rect fill="#FFEBEE" height="45.9102" rx="12.5" ry="12.5" style="stroke:#444444;stroke-width:0.5;" width="136.3916" x="443.7251" y="1121.1211"/><text fill="#000000" font-family="sans-serif" font-size="11" lengthAdjust="spacing" textLength="116.3916" x="453.7251" y="1141.7559">Extract metadata only</text><text fill="#000000" font-family="sans-serif" font-size="11" lengthAdjust="spacing" textLength="100.0635" x="453.7251" y="1154.7109">(privacy by design)</text><rect fill="#FFEBEE" height="71.8203" rx="12.5" ry="12.5" style="stroke:#444444;stroke-width:0.5;" width="167.9253" x="427.9583" y="1202.0313"/><text fill="#000000" font-family="sans-serif" font-size="11" lengthAdjust="spacing" textLength="111.8315" x="437.9583" y="1222.666">Cloud LLM generates</text><text fill="#000000" font-family="sans-serif" font-size="11" lengthAdjust="spacing" textLength="125.0015" x="437.9583" y="1235.6211">analysis + visualization</text><text fill="#000000" font-family="sans-serif" font-size="11" lengthAdjust="spacing" textLength="101.9595" x="437.9583" y="1248.5762">in ONE merged call</text><text fill="#000000" font-family="sans-serif" font-size="11" lengthAdjust="spacing" textLength="147.9253" x="437.9583" y="1261.5313">(Zhipu / Groq dual fallback)</text><rect fill="#FFEBEE" height="45.9102" rx="12.5" ry="12.5" style="stroke:#444444;stroke-width:0.5;" width="174.7681" x="424.5369" y="1308.8516"/><text fill="#000000" font-family="sans-serif" font-size="11" lengthAdjust="spacing" textLength="154.7681" x="434.5369" y="1329.4863">CodeValidator security check</text><text fill="#000000" font-family="sans-serif" font-size="11" lengthAdjust="spacing" textLength="149.6602" x="434.5369" y="1342.4414">(blocked methods enforced)</text><rect fill="#FFEBEE" height="45.9102" rx="12.5" ry="12.5" style="stroke:#444444;stroke-width:0.5;" width="144.4912" x="439.6753" y="1389.7617"/><text fill="#000000" font-family="sans-serif" font-size="11" font-weight="bold" lengthAdjust="spacing" textLength="76.6616" x="449.6753" y="1410.3965">[8] Code Exec</text><text fill="#000000" font-family="sans-serif" font-size="11" lengthAdjust="spacing" textLength="124.4912" x="449.6753" y="1423.3516">E2B or Docker sandbox</text><polygon fill="#F1F1F1" points="310.1525,1560.4473,310.1525,1560.4473,322.1525,1572.4473,310.1525,1584.4473,310.1525,1584.4473,298.1525,1572.4473,310.1525,1560.4473" style="stroke:#444444;stroke-width:0.5;"/><rect fill="#D1C4E9" height="84.7754" rx="12.5" ry="12.5" style="stroke:#444444;stroke-width:0.5;" width="221.6953" x="199.3048" y="1604.4473"/><text fill="#000000" font-family="sans-serif" font-size="11" font-weight="bold" lengthAdjust="spacing" textLength="73.4927" x="209.3048" y="1625.082">[9] Response</text><text fill="#000000" font-family="sans-serif" font-size="11" lengthAdjust="spacing" textLength="80.1367" x="209.3048" y="1638.0371">Format output:</text><text fill="#000000" font-family="sans-serif" font-size="11" lengthAdjust="spacing" textLength="73.5571" x="216.2657" y="1650.9922">- Answer text</text><text fill="#000000" font-family="sans-serif" font-size="11" lengthAdjust="spacing" textLength="162.5078" x="216.2657" y="1663.9473">- Source citations (mandatory)</text><text fill="#000000" font-family="sans-serif" font-size="11" lengthAdjust="spacing" textLength="194.7344" x="216.2657" y="1676.9023">- Suggested follow-ups (mandatory)</text><rect fill="#D1C4E9" height="58.8652" rx="12.5" ry="12.5" style="stroke:#444444;stroke-width:0.5;" width="154.0571" x="233.1239" y="1709.2227"/><text fill="#000000" font-family="sans-serif" font-size="11" font-weight="bold" lengthAdjust="spacing" textLength="108.0986" x="243.1239" y="1729.8574">[10] Groundedness</text><text fill="#000000" font-family="sans-serif" font-size="11" lengthAdjust="spacing" textLength="122.2783" x="243.1239" y="1742.8125">Verify response quality</text><text fill="#000000" font-family="sans-serif" font-size="11" lengthAdjust="spacing" textLength="134.0571" x="243.1239" y="1755.7676">against retrieved sources</text><rect fill="#FFF3E0" height="120.3086" style="stroke:#000000;stroke-width:1.5;" width="161.9507" x="229.1771" y="1790.0879"/><path d="M352.3461,1790.0879 L352.3461,1799.5762 L342.3461,1809.5762 L229.1771,1809.5762" fill="none" style="stroke:#000000;stroke-width:1.5;"/><text fill="#000000" font-family="sans-serif" font-size="14" lengthAdjust="spacing" textLength="113.1689" x="232.1771" y="1804.623">Frontend Render</text><rect fill="#F1F1F1" height="71.8203" rx="12.5" ry="12.5" style="stroke:#444444;stroke-width:0.5;" width="141.9507" x="239.1771" y="1826.5762"/><text fill="#000000" font-family="sans-serif" font-size="11" lengthAdjust="spacing" textLength="120.4683" x="249.1771" y="1847.2109">Display response with:</text><text fill="#000000" font-family="sans-serif" font-size="11" lengthAdjust="spacing" textLength="57.3096" x="249.1771" y="1860.166">- Citations</text><text fill="#000000" font-family="sans-serif" font-size="11" lengthAdjust="spacing" textLength="89.7563" x="249.1771" y="1873.1211">- Follow-up pills</text><text fill="#000000" font-family="sans-serif" font-size="11" lengthAdjust="spacing" textLength="121.9507" x="249.1771" y="1886.0762">- Pipeline visualization</text><ellipse cx="310.1525" cy="1941.3965" fill="none" rx="11" ry="11" style="stroke:#222222;stroke-width:1;"/><ellipse cx="310.1525" cy="1941.3965" fill="#222222" rx="6" ry="6" style="stroke:#222222;stroke-width:1;"/><line style="stroke:#555555;stroke-width:1;" x1="310.1525" x2="310.1525" y1="83.9766" y2="103.9766"/><polygon fill="#555555" points="306.1525,93.9766,310.1525,103.9766,314.1525,93.9766,310.1525,97.9766" style="stroke:#555555;stroke-width:1;"/><line style="stroke:#555555;stroke-width:1;" x1="310.1525" x2="310.1525" y1="136.9316" y2="183.4199"/><polygon fill="#555555" points="306.1525,173.4199,310.1525,183.4199,314.1525,173.4199,310.1525,177.4199" style="stroke:#555555;stroke-width:1;"/><line style="stroke:#555555;stroke-width:1;" x1="310.1525" x2="310.1525" y1="229.3301" y2="287.8184"/><polygon fill="#555555" points="306.1525,277.8184,310.1525,287.8184,314.1525,277.8184,310.1525,281.8184" style="stroke:#555555;stroke-width:1;"/><line style="stroke:#555555;stroke-width:1;" x1="508.8201" x2="508.8201" y1="624.9922" y2="644.9922"/><polygon fill="#555555" points="504.8201,634.9922,508.8201,644.9922,512.8201,634.9922,508.8201,638.9922" style="stroke:#555555;stroke-width:1;"/><line style="stroke:#555555;stroke-width:1;" x1="345.5701" x2="335.5701" y1="570.0371" y2="570.0371"/><line style="stroke:#555555;stroke-width:1;" x1="335.5701" x2="335.5701" y1="570.0371" y2="592.0371"/><polygon fill="#555555" points="331.5701,582.0371,335.5701,592.0371,339.5701,582.0371,335.5701,586.0371" style="stroke:#555555;stroke-width:1;"/><line style="stroke:#555555;stroke-width:1;" x1="498.8201" x2="508.8201" y1="570.0371" y2="570.0371"/><line style="stroke:#555555;stroke-width:1;" x1="508.8201" x2="508.8201" y1="570.0371" y2="592.0371"/><polygon fill="#555555" points="504.8201,582.0371,508.8201,592.0371,512.8201,582.0371,508.8201,586.0371" style="stroke:#555555;stroke-width:1;"/><line style="stroke:#555555;stroke-width:1;" x1="335.5701" x2="335.5701" y1="624.9922" y2="695.9473"/><line style="stroke:#555555;stroke-width:1;" x1="335.5701" x2="410.1951" y1="695.9473" y2="695.9473"/><polygon fill="#555555" points="400.1951,691.9473,410.1951,695.9473,400.1951,699.9473,404.1951,695.9473" style="stroke:#555555;stroke-width:1;"/><line style="stroke:#555555;stroke-width:1;" x1="508.8201" x2="508.8201" y1="677.9473" y2="695.9473"/><line style="stroke:#555555;stroke-width:1;" x1="508.8201" x2="434.1951" y1="695.9473" y2="695.9473"/><polygon fill="#555555" points="444.1951,691.9473,434.1951,695.9473,444.1951,699.9473,440.1951,695.9473" style="stroke:#555555;stroke-width:1;"/><line style="stroke:#555555;stroke-width:1;" x1="422.1951" x2="422.1951" y1="538.0371" y2="558.0371"/><polygon fill="#555555" points="418.1951,548.0371,422.1951,558.0371,426.1951,548.0371,422.1951,552.0371" style="stroke:#555555;stroke-width:1;"/><line style="stroke:#555555;stroke-width:1;" x1="217.0248" x2="198.1099" y1="470.127" y2="470.127"/><line style="stroke:#555555;stroke-width:1;" x1="198.1099" x2="198.1099" y1="470.127" y2="492.127"/><polygon fill="#555555" points="194.1099,482.127,198.1099,492.127,202.1099,482.127,198.1099,486.127" style="stroke:#555555;stroke-width:1;"/><line style="stroke:#555555;stroke-width:1;" x1="403.2802" x2="422.1951" y1="470.127" y2="470.127"/><line style="stroke:#555555;stroke-width:1;" x1="422.1951" x2="422.1951" y1="470.127" y2="492.127"/><polygon fill="#555555" points="418.1951,482.127,422.1951,492.127,426.1951,482.127,422.1951,486.127" style="stroke:#555555;stroke-width:1;"/><line style="stroke:#555555;stroke-width:1;" x1="198.1099" x2="198.1099" y1="538.0371" y2="725.9473"/><line style="stroke:#555555;stroke-width:1;" x1="198.1099" x2="298.1525" y1="725.9473" y2="725.9473"/><polygon fill="#555555" points="288.1525,721.9473,298.1525,725.9473,288.1525,729.9473,292.1525,725.9473" style="stroke:#555555;stroke-width:1;"/><line style="stroke:#555555;stroke-width:1;" x1="422.1951" x2="422.1951" y1="707.9473" y2="725.9473"/><line style="stroke:#555555;stroke-width:1;" x1="422.1951" x2="322.1525" y1="725.9473" y2="725.9473"/><polygon fill="#555555" points="332.1525,721.9473,322.1525,725.9473,332.1525,729.9473,328.1525,725.9473" style="stroke:#555555;stroke-width:1;"/><line style="stroke:#555555;stroke-width:1;" x1="310.1525" x2="310.1525" y1="438.127" y2="458.127"/><polygon fill="#555555" points="306.1525,448.127,310.1525,458.127,314.1525,448.127,310.1525,452.127" style="stroke:#555555;stroke-width:1;"/><line style="stroke:#555555;stroke-width:1;" x1="310.1525" x2="310.1525" y1="737.9473" y2="757.9473"/><polygon fill="#555555" points="306.1525,747.9473,310.1525,757.9473,314.1525,747.9473,310.1525,751.9473" style="stroke:#555555;stroke-width:1;"/><line style="stroke:#555555;stroke-width:1;" x1="310.1525" x2="310.1525" y1="790.9023" y2="810.9023"/><polygon fill="#555555" points="306.1525,800.9023,310.1525,810.9023,314.1525,800.9023,310.1525,804.9023" style="stroke:#555555;stroke-width:1;"/><line style="stroke:#555555;stroke-width:1;" x1="310.1525" x2="310.1525" y1="346.6836" y2="405.1719"/><polygon fill="#555555" points="306.1525,395.1719,310.1525,405.1719,314.1525,395.1719,310.1525,399.1719" style="stroke:#555555;stroke-width:1;"/><line style="stroke:#555555;stroke-width:1;" x1="310.1525" x2="310.1525" y1="935.3008" y2="955.3008"/><polygon fill="#555555" points="306.1525,945.3008,310.1525,955.3008,314.1525,945.3008,310.1525,949.3008" style="stroke:#555555;stroke-width:1;"/><line style="stroke:#555555;stroke-width:1;" x1="310.1525" x2="310.1525" y1="988.2559" y2="1008.2559"/><polygon fill="#555555" points="306.1525,998.2559,310.1525,1008.2559,314.1525,998.2559,310.1525,1002.2559" style="stroke:#555555;stroke-width:1;"/><line style="stroke:#555555;stroke-width:1;" x1="105.6394" x2="105.6394" y1="1192.9414" y2="1227.9414"/><polygon fill="#555555" points="101.6394,1217.9414,105.6394,1227.9414,109.6394,1217.9414,105.6394,1221.9414" style="stroke:#555555;stroke-width:1;"/><line style="stroke:#555555;stroke-width:1;" x1="105.6394" x2="105.6394" y1="1286.8066" y2="1321.8066"/><polygon fill="#555555" points="101.6394,1311.8066,105.6394,1321.8066,109.6394,1311.8066,105.6394,1315.8066" style="stroke:#555555;stroke-width:1;"/><line style="stroke:#555555;stroke-width:1;" x1="105.6394" x2="105.6394" y1="1380.6719" y2="1415.6719"/><polygon fill="#555555" points="101.6394,1405.6719,105.6394,1415.6719,109.6394,1405.6719,105.6394,1409.6719" style="stroke:#555555;stroke-width:1;"/><line style="stroke:#555555;stroke-width:1;" x1="105.6394" x2="105.6394" y1="1474.5371" y2="1494.5371"/><polygon fill="#555555" points="101.6394,1484.5371,105.6394,1494.5371,109.6394,1484.5371,105.6394,1488.5371" style="stroke:#555555;stroke-width:1;"/><line style="stroke:#555555;stroke-width:1;" x1="318.4419" x2="318.4419" y1="1167.0313" y2="1202.0313"/><polygon fill="#555555" points="314.4419,1192.0313,318.4419,1202.0313,322.4419,1192.0313,318.4419,1196.0313" style="stroke:#555555;stroke-width:1;"/><line style="stroke:#555555;stroke-width:1;" x1="318.4419" x2="318.4419" y1="1247.9414" y2="1282.9414"/><polygon fill="#555555" points="314.4419,1272.9414,318.4419,1282.9414,322.4419,1272.9414,318.4419,1276.9414" style="stroke:#555555;stroke-width:1;"/><line style="stroke:#555555;stroke-width:1;" x1="318.4419" x2="318.4419" y1="1328.8516" y2="1363.8516"/><polygon fill="#555555" points="314.4419,1353.8516,318.4419,1363.8516,322.4419,1353.8516,318.4419,1357.8516" style="stroke:#555555;stroke-width:1;"/><line style="stroke:#555555;stroke-width:1;" x1="511.9209" x2="511.9209" y1="1167.0313" y2="1202.0313"/><polygon fill="#555555" points="507.9209,1192.0313,511.9209,1202.0313,515.9209,1192.0313,511.9209,1196.0313" style="stroke:#555555;stroke-width:1;"/><line style="stroke:#555555;stroke-width:1;" x1="511.9209" x2="511.9209" y1="1273.8516" y2="1308.8516"/><polygon fill="#555555" points="507.9209,1298.8516,511.9209,1308.8516,515.9209,1298.8516,511.9209,1302.8516" style="stroke:#555555;stroke-width:1;"/><line style="stroke:#555555;stroke-width:1;" x1="511.9209" x2="511.9209" y1="1354.7617" y2="1389.7617"/><polygon fill="#555555" points="507.9209,1379.7617,511.9209,1389.7617,515.9209,1379.7617,511.9209,1383.7617" style="stroke:#555555;stroke-width:1;"/><line style="stroke:#555555;stroke-width:1;" x1="267.0458" x2="105.6394" y1="1073.2109" y2="1073.2109"/><line style="stroke:#555555;stroke-width:1;" x1="105.6394" x2="105.6394" y1="1073.2109" y2="1121.1211"/><polygon fill="#555555" points="101.6394,1111.1211,105.6394,1121.1211,109.6394,1111.1211,105.6394,1115.1211" style="stroke:#555555;stroke-width:1;"/><text fill="#000000" font-family="sans-serif" font-size="11" lengthAdjust="spacing" textLength="106.7075" x="105.6394" y="1101.3232">knowledge_retrieval</text><line style="stroke:#555555;stroke-width:1;" x1="353.2592" x2="511.9209" y1="1073.2109" y2="1073.2109"/><line style="stroke:#555555;stroke-width:1;" x1="511.9209" x2="511.9209" y1="1073.2109" y2="1121.1211"/><polygon fill="#555555" points="507.9209,1111.1211,511.9209,1121.1211,515.9209,1111.1211,511.9209,1115.1211" style="stroke:#555555;stroke-width:1;"/><text fill="#000000" font-family="sans-serif" font-size="11" lengthAdjust="spacing" textLength="83.2842" x="511.9209" y="1101.3232">code_execution</text><line style="stroke:#555555;stroke-width:1;" x1="310.1525" x2="310.1525" y1="1085.2109" y2="1097.181"/><line style="stroke:#555555;stroke-width:1;" x1="310.1525" x2="318.4419" y1="1097.181" y2="1097.181"/><line style="stroke:#555555;stroke-width:1;" x1="318.4419" x2="318.4419" y1="1097.181" y2="1121.1211"/><polygon fill="#555555" points="314.4419,1111.1211,318.4419,1121.1211,322.4419,1111.1211,318.4419,1115.1211" style="stroke:#555555;stroke-width:1;"/><text fill="#000000" font-family="sans-serif" font-size="11" lengthAdjust="spacing" textLength="83.8643" x="310.1525" y="1102.3232">cost_estimation</text><line style="stroke:#555555;stroke-width:1;" x1="105.6394" x2="105.6394" y1="1540.4473" y2="1572.4473"/><line style="stroke:#555555;stroke-width:1;" x1="105.6394" x2="298.1525" y1="1572.4473" y2="1572.4473"/><polygon fill="#555555" points="288.1525,1568.4473,298.1525,1572.4473,288.1525,1576.4473,292.1525,1572.4473" style="stroke:#555555;stroke-width:1;"/><line style="stroke:#555555;stroke-width:1;" x1="511.9209" x2="511.9209" y1="1435.6719" y2="1572.4473"/><line style="stroke:#555555;stroke-width:1;" x1="511.9209" x2="322.1525" y1="1572.4473" y2="1572.4473"/><polygon fill="#555555" points="332.1525,1568.4473,322.1525,1572.4473,332.1525,1576.4473,328.1525,1572.4473" style="stroke:#555555;stroke-width:1;"/><line style="stroke:#555555;stroke-width:1;" x1="318.4419" x2="318.4419" y1="1396.8066" y2="1516.127"/><line style="stroke:#555555;stroke-width:1;" x1="318.4419" x2="310.1525" y1="1516.127" y2="1516.127"/><line style="stroke:#555555;stroke-width:1;" x1="310.1525" x2="310.1525" y1="1516.127" y2="1560.4473"/><polygon fill="#555555" points="306.1525,1550.4473,310.1525,1560.4473,314.1525,1550.4473,310.1525,1554.4473" style="stroke:#555555;stroke-width:1;"/><line style="stroke:#555555;stroke-width:1;" x1="310.1525" x2="310.1525" y1="1041.2109" y2="1061.2109"/><polygon fill="#555555" points="306.1525,1051.2109,310.1525,1061.2109,314.1525,1051.2109,310.1525,1055.2109" style="stroke:#555555;stroke-width:1;"/><line style="stroke:#555555;stroke-width:1;" x1="310.1525" x2="310.1525" y1="1584.4473" y2="1604.4473"/><polygon fill="#555555" points="306.1525,1594.4473,310.1525,1604.4473,314.1525,1594.4473,310.1525,1598.4473" style="stroke:#555555;stroke-width:1;"/><line style="stroke:#555555;stroke-width:1;" x1="310.1525" x2="310.1525" y1="1689.2227" y2="1709.2227"/><polygon fill="#555555" points="306.1525,1699.2227,310.1525,1709.2227,314.1525,1699.2227,310.1525,1703.2227" style="stroke:#555555;stroke-width:1;"/><line style="stroke:#555555;stroke-width:1;" x1="310.1525" x2="310.1525" y1="843.8574" y2="902.3457"/><polygon fill="#555555" points="306.1525,892.3457,310.1525,902.3457,314.1525,892.3457,310.1525,896.3457" style="stroke:#555555;stroke-width:1;"/><line style="stroke:#555555;stroke-width:1;" x1="310.1525" x2="310.1525" y1="1768.0879" y2="1826.5762"/><polygon fill="#555555" points="306.1525,1816.5762,310.1525,1826.5762,314.1525,1816.5762,310.1525,1820.5762" style="stroke:#555555;stroke-width:1;"/><line style="stroke:#555555;stroke-width:1;" x1="310.1525" x2="310.1525" y1="1898.3965" y2="1930.3965"/><polygon fill="#555555" points="306.1525,1920.3965,310.1525,1930.3965,314.1525,1920.3965,310.1525,1924.3965" style="stroke:#555555;stroke-width:1;"/><?plantuml-src RLRXSjf64FxFK-maqmxOGsmSapfsaWwsKUDf75FZ99qMZ-UGLd11t2bt9x3IoKmVea_O9-bt9q6D0_vXEDr---tkjxkoCwboOSISnYAUJOmkL7AcCsteQTJtVmsxlY5Y9nVIbQVQ96pgMuVXi-LMf9KRogzCdSx3fyRePMtQ3Pz6mqcNCLsefB3EbDIxe2ZJI_htxt_eKaX5r_obOEl2wKWrFro-erxjXCwbc02trMXO9unh77-mRCWMuxbqbc07m8KKz4cRMUfHpwR2dJGQO0EtKYjw4XamPPLGyptVksUVRUi9FUqVHVjHd_vg41tt1XSqCFg-f5IRfJ299QSf4jRX2GWDheOtj2TokRVex2rhHtl1T-kayMt3sIeMuCLihLIJobct_x9orhzt1Ycatzith8HoxOjp7y18MOuBmtSWcckf72MSupkhk0I5UP4vsNR1WgJLcV3kllD-uGDrT9O9k4vb76uz8Z0GnZAXNeMZ7ubhEZCk4LbYaJeYcLBpBHT6MYTZYhLAfIV2zEOrxJyxwlxS8ZTbHSsIRGltWVh_TJlLniM50sl88gTtxouf5ba6iaISmNTJwTfgwCk2NFynbNa1OS0cpdIHL4ORKGJpYbfu-9ZKzvo0VwqBnzw138cf83OvuDPbbTp2AE_Jh5sUh66uNPCfIQGE0Yoy2WtRNADkDQnAPDfO_VUP_Yseqp1KXVgj8OyZgKHMKwBT1w4yBcTdl_rU9qpzUsWZ70rapfbKu8-koAVFyjABENhUxqPTbDUZx-pysRcbIWaxEw7B5YAJYN1yGgzUFUsTdn_rNxnvKzyzkAMXIDcLzTrOLxpYASUpRGRFR-bCG-5zL7iUWgejJKZs5ZiOsgLqyPIQjK1TcVFFFl-nyBMOARtCE9dmdM5d98Dlgr4f10uFRp4XwkETdP5wMuwDJCYoCF7qUAI8JYyFkaZaHuuTviukNLz7_hXvSpMu-_NrKIlGuUVfGPg4C2hShiSrGiqyw7Z2RHD-iMcFmMgaOgEjRQCkA056JgmDkdaxr8jRt_3pt7cedhKy7sFY8UOfyb6ecQNTaPhpN4CFkvI7g-HudcUhgdm7-HFO-OHwn25d22qqXP_YK1WQvIhBn5pGNjqyU_IBqL-sXUhD9gmGd6Ex5kr81NfM5mOz54iNIbdrVrML65M-utMLLnLP3J14yTcpIbcWTTY2KkUGL35dWocmImU0SJn1rj3z5QyqJO-ui-9r9jofzahA3ISII7h1nXIAVXYfQmarh1_0NO6EyOIsu0pVzWPqe_DsbrBX5G0gk_G9Uw2DQI7GQwMLTfkXd4lq-pgIJEjPaLEp-uZjWuma6D2hPdoSa3axWIuJf5NcPtPkv4B49OrBp78h9se5osFcTHBMusvTef5QSKOM5z8YTFarb62ai2sltlVXoamu2MCLZXuAW1AVgHGFl5AsUaGG7wk1W6O9MySlsj2t01jd6WfBV3HJZKt82kChvcGR56HwvAT1FQAyLFi7fmJOSmy2TA6IiRxVDArcP3KHLXFhfU_5IfWU9SB45114uR2bGektgQVi4f0E6wiw63wIBZNdSEUZAblrZM8oWO0HJQepxEnsaM_S2hoIJdp8BzVZhRD_wnE9roHE53Quf_CHaaxBTUlWjGFvSwYncE3z1GgknnOSLVraDv6_RNyVkVRxtVZv7M62xrVh-LnQJ8K7pdoR8WLjEbi5wdz4gu0ebraMZjQxOKCpOQTOf_F6Vm00?></g></svg>