<?plantuml 1.2026.2?><svg xmlns="http://www.w3.org/2000/svg" xmlns:xlink="http://www.w3.org/1999/xlink" contentStyleType="text/css" data-diagram-type="ACTIVITY" height="1289px" preserveAspectRatio="none" style="width:1127px;height:1289px;background:#FEFEFE;" version="1.1" viewBox="0 0 1127 1289" width="1127px" zoomAndPan="magnify"><title>Intent Workflow &#8212; 11-Node StateGraph Detail
(UML Activity Diagram)</title><defs/><g><rect fill="#FEFEFE" height="1289" style="stroke:none;stroke-width:1;" width="1127" x="0" y="0"/><g class="title" data-source-line="183"><text fill="#000000" font-family="sans-serif" font-size="14" font-weight="bold" lengthAdjust="spacing" textLength="334.0381" x="395.4307" y="33.5352">Intent Workflow &#8212; 11-Node StateGraph Detail</text><text fill="#000000" font-family="sans-serif" font-size="14" font-weight="bold" lengthAdjust="spacing" textLength="166.7354" x="479.082" y="50.0234">(UML Activity Diagram)</text></g><ellipse cx="452.7333" cy="73.9766" fill="#222222" rx="10" ry="10" style="stroke:#222222;stroke-width:1;"/><rect fill="#F1F1F1" height="48.2656" rx="12.5" ry="12.5" style="stroke:#444444;stroke-width:0.5;" width="148.8711" x="378.2977" y="103.9766"/><text fill="#000000" font-family="sans-serif" font-size="12" font-weight="bold" lengthAdjust="spacing" textLength="128.8711" x="388.2977" y="125.5781">Node 1: input_parser</text><text fill="#000000" font-family="sans-serif" font-size="12" lengthAdjust="spacing" textLength="118.7109" x="388.2977" y="139.7109">Parse raw user input</text><rect fill="#F1F1F1" height="48.2656" rx="12.5" ry="12.5" style="stroke:#444444;stroke-width:0.5;" width="289.5195" x="307.9735" y="172.2422"/><text fill="#000000" font-family="sans-serif" font-size="12" font-weight="bold" lengthAdjust="spacing" textLength="141.498" x="317.9735" y="193.8438">Node 2: context_loader</text><text fill="#000000" font-family="sans-serif" font-size="12" lengthAdjust="spacing" textLength="269.5195" x="317.9735" y="207.9766">Load conversation memory\n+ tenant context</text><rect fill="#F1F1F1" height="48.2656" rx="12.5" ry="12.5" style="stroke:#444444;stroke-width:0.5;" width="185.5684" x="359.9491" y="240.5078"/><text fill="#000000" font-family="sans-serif" font-size="12" font-weight="bold" lengthAdjust="spacing" textLength="165.5684" x="369.9491" y="262.1094">Node 3: keyword_extractor</text><text fill="#000000" font-family="sans-serif" font-size="12" lengthAdjust="spacing" textLength="146.9531" x="369.9491" y="276.2422">Extract domain keywords</text><path d="M560.4344,332.6172 L560.4344,364.2383 L540.4344,368.2383 L560.4344,372.2383 L560.4344,403.8594 A0,0 0 0 0 560.4344,403.8594 L792.951,403.8594 A0,0 0 0 0 792.951,403.8594 L792.951,342.6172 L782.951,332.6172 L560.4344,332.6172 A0,0 0 0 0 560.4344,332.6172" fill="#FEFFDD" style="stroke:#181818;stroke-width:0.5;"/><path d="M782.951,332.6172 L782.951,342.6172 L792.951,342.6172 L782.951,332.6172" fill="#FEFFDD" style="stroke:#181818;stroke-width:0.5;"/><text fill="#000000" font-family="sans-serif" font-size="13" lengthAdjust="spacing" textLength="165.4517" x="566.4344" y="350.1855">Capability Registry (YAML)</text><text fill="#000000" font-family="sans-serif" font-size="13" lengthAdjust="spacing" textLength="156.9966" x="566.4344" y="365.4961">uses exclusive_keywords</text><text fill="#000000" font-family="sans-serif" font-size="13" lengthAdjust="spacing" textLength="200.3892" x="566.4344" y="380.8066">Penalty: score &#215;0.5 + conf -0.3</text><text fill="#000000" font-family="sans-serif" font-size="13" lengthAdjust="spacing" textLength="211.5166" x="566.4344" y="396.1172">when query lacks exclusive terms</text><rect fill="#F1F1F1" height="118.9297" rx="12.5" ry="12.5" style="stroke:#444444;stroke-width:0.5;" width="175.4023" x="365.0321" y="308.7734"/><text fill="#000000" font-family="sans-serif" font-size="12" font-weight="bold" lengthAdjust="spacing" textLength="155.4023" x="375.0321" y="330.375">Node 4: capability_scorer</text><text fill="#000000" font-family="sans-serif" font-size="12" lengthAdjust="spacing" textLength="116.2266" x="375.0321" y="344.5078">Score 5 capabilities:</text><text fill="#000000" font-family="sans-serif" font-size="12" lengthAdjust="spacing" textLength="127.1484" x="375.0321" y="358.6406">- knowledge_retrieval</text><text fill="#000000" font-family="sans-serif" font-size="12" lengthAdjust="spacing" textLength="102.2285" x="375.0321" y="372.7734">- cost_estimation</text><text fill="#000000" font-family="sans-serif" font-size="12" lengthAdjust="spacing" textLength="101.5957" x="375.0321" y="386.9063">- code_execution</text><text fill="#000000" font-family="sans-serif" font-size="12" lengthAdjust="spacing" textLength="88.1777" x="375.0321" y="401.0391">- data_analysis</text><text fill="#000000" font-family="sans-serif" font-size="12" lengthAdjust="spacing" textLength="138.3809" x="375.0321" y="415.1719">- document_processing</text><rect fill="#F1F1F1" height="48.2656" rx="12.5" ry="12.5" style="stroke:#444444;stroke-width:0.5;" width="219.2773" x="343.0946" y="447.7031"/><text fill="#000000" font-family="sans-serif" font-size="12" font-weight="bold" lengthAdjust="spacing" textLength="188.1035" x="353.0946" y="469.3047">Node 5: confidence_evaluation</text><text fill="#000000" font-family="sans-serif" font-size="12" lengthAdjust="spacing" textLength="7.377" x="544.995" y="469.3047">&#9671;</text><text fill="#000000" font-family="sans-serif" font-size="12" lengthAdjust="spacing" textLength="150.2461" x="353.0946" y="483.4375">Evaluate confidence score</text><polygon fill="#F1F1F1" points="395.985,515.9688,509.4816,515.9688,521.4816,527.9688,509.4816,539.9688,395.985,539.9688,383.985,527.9688,395.985,515.9688" style="stroke:#444444;stroke-width:0.5;"/><text fill="#000000" font-family="sans-serif" font-size="11" lengthAdjust="spacing" textLength="113.4966" x="395.985" y="532.126">Confidence &gt;= 0.85?</text><text fill="#000000" font-family="sans-serif" font-size="11" lengthAdjust="spacing" textLength="129.3037" x="254.6813" y="525.6484">yes &#8212; heuristic shortcut</text><text fill="#000000" font-family="sans-serif" font-size="11" lengthAdjust="spacing" textLength="87.8442" x="521.4816" y="525.6484">no &#8212; needs LLM</text><path d="M207.1113,553.791 L207.1113,570.1016 L187.1113,574.1016 L207.1113,578.1016 L207.1113,594.4121 A0,0 0 0 0 207.1113,594.4121 L358.1304,594.4121 A0,0 0 0 0 358.1304,594.4121 L358.1304,563.791 L348.1304,553.791 L207.1113,553.791 A0,0 0 0 0 207.1113,553.791" fill="#FEFFDD" style="stroke:#181818;stroke-width:0.5;"/><path d="M348.1304,553.791 L348.1304,563.791 L358.1304,563.791 L348.1304,553.791" fill="#FEFFDD" style="stroke:#181818;stroke-width:0.5;"/><text fill="#000000" font-family="sans-serif" font-size="13" lengthAdjust="spacing" textLength="87.8071" x="213.1113" y="571.3594">Skips LLM call</text><text fill="#000000" font-family="sans-serif" font-size="13" lengthAdjust="spacing" textLength="130.019" x="213.1113" y="586.6699">for clear-cut queries</text><rect fill="#F1F1F1" height="48.2656" rx="12.5" ry="12.5" style="stroke:#444444;stroke-width:0.5;" width="176.1113" x="11" y="549.9688"/><text fill="#000000" font-family="sans-serif" font-size="12" font-weight="bold" lengthAdjust="spacing" textLength="156.1113" x="21" y="571.5703">Node 6: intent_resolution</text><text fill="#000000" font-family="sans-serif" font-size="12" lengthAdjust="spacing" textLength="150.2988" x="21" y="585.7031">Set intent from top scorer</text><polygon fill="#F1F1F1" points="753.1404,549.9688,859.6814,549.9688,871.6814,561.9688,859.6814,573.9688,753.1404,573.9688,741.1404,561.9688,753.1404,549.9688" style="stroke:#444444;stroke-width:0.5;"/><text fill="#000000" font-family="sans-serif" font-size="11" lengthAdjust="spacing" textLength="106.541" x="753.1404" y="566.126">Confidence &gt;= 0.5?</text><text fill="#000000" font-family="sans-serif" font-size="11" lengthAdjust="spacing" textLength="59.3237" x="681.8167" y="559.6484">ambiguous</text><text fill="#000000" font-family="sans-serif" font-size="11" lengthAdjust="spacing" textLength="79.9756" x="871.6814" y="559.6484">low confidence</text><rect fill="#F1F1F1" height="48.2656" rx="12.5" ry="12.5" style="stroke:#444444;stroke-width:0.5;" width="288.623" x="445.5083" y="583.9688"/><text fill="#000000" font-family="sans-serif" font-size="12" font-weight="bold" lengthAdjust="spacing" textLength="132.2813" x="455.5083" y="605.5703">Node 7: llm_classifier</text><text fill="#000000" font-family="sans-serif" font-size="12" lengthAdjust="spacing" textLength="268.623" x="455.5083" y="619.7031">Send to Zhipu AI cloud LLM\nfor classification</text><polygon fill="#F1F1F1" points="525.1948,652.2344,654.4448,652.2344,666.4448,664.2344,654.4448,676.2344,525.1948,676.2344,513.1948,664.2344,525.1948,652.2344" style="stroke:#444444;stroke-width:0.5;"/><text fill="#000000" font-family="sans-serif" font-size="11" lengthAdjust="spacing" textLength="129.25" x="525.1948" y="668.3916">LLM confidence &gt;= 0.8?</text><text fill="#000000" font-family="sans-serif" font-size="11" lengthAdjust="spacing" textLength="17.4829" x="495.7119" y="661.9141">yes</text><text fill="#000000" font-family="sans-serif" font-size="11" lengthAdjust="spacing" textLength="13.5835" x="666.4448" y="661.9141">no</text><rect fill="#F1F1F1" height="48.2656" rx="12.5" ry="12.5" style="stroke:#444444;stroke-width:0.5;" width="176.1113" x="398.1304" y="686.2344"/><text fill="#000000" font-family="sans-serif" font-size="12" font-weight="bold" lengthAdjust="spacing" textLength="156.1113" x="408.1304" y="707.8359">Node 6: intent_resolution</text><text fill="#000000" font-family="sans-serif" font-size="12" lengthAdjust="spacing" textLength="150.9961" x="408.1304" y="721.9688">Set intent from LLM result</text><rect fill="#F1F1F1" height="48.2656" rx="12.5" ry="12.5" style="stroke:#444444;stroke-width:0.5;" width="198.4238" x="594.2417" y="686.2344"/><text fill="#000000" font-family="sans-serif" font-size="12" font-weight="bold" lengthAdjust="spacing" textLength="156.6211" x="604.2417" y="707.8359">Node 8: clarification_step</text><text fill="#000000" font-family="sans-serif" font-size="12" lengthAdjust="spacing" textLength="7.377" x="764.6597" y="707.8359">&#9671;</text><text fill="#000000" font-family="sans-serif" font-size="12" lengthAdjust="spacing" textLength="178.4238" x="604.2417" y="721.9688">Generate clarification question</text><rect fill="#F1F1F1" height="48.2656" rx="12.5" ry="12.5" style="stroke:#444444;stroke-width:0.5;" width="123.6699" x="631.6187" y="754.5"/><text fill="#000000" font-family="sans-serif" font-size="12" lengthAdjust="spacing" textLength="103.6699" x="641.6187" y="776.1016">Return to user for</text><text fill="#000000" font-family="sans-serif" font-size="12" lengthAdjust="spacing" textLength="77.9531" x="641.6187" y="790.2344">more context</text><rect fill="#F1F1F1" height="48.2656" rx="12.5" ry="12.5" style="stroke:#444444;stroke-width:0.5;" width="195.3301" x="595.7886" y="822.7656"/><text fill="#000000" font-family="sans-serif" font-size="12" font-weight="bold" lengthAdjust="spacing" textLength="175.3301" x="605.7886" y="844.3672">Node 9: response_integrator</text><text fill="#000000" font-family="sans-serif" font-size="12" lengthAdjust="spacing" textLength="161.9414" x="605.7886" y="858.5">Integrate user's clarification</text><path d="M772.3589,894.8535 L772.3589,911.1641 L752.3589,915.1641 L772.3589,919.1641 L772.3589,935.4746 A0,0 0 0 0 772.3589,935.4746 L899.1045,935.4746 A0,0 0 0 0 899.1045,935.4746 L899.1045,904.8535 L889.1045,894.8535 L772.3589,894.8535 A0,0 0 0 0 772.3589,894.8535" fill="#FEFFDD" style="stroke:#181818;stroke-width:0.5;"/><path d="M889.1045,894.8535 L889.1045,904.8535 L899.1045,904.8535 L889.1045,894.8535" fill="#FEFFDD" style="stroke:#181818;stroke-width:0.5;"/><text fill="#000000" font-family="sans-serif" font-size="13" lengthAdjust="spacing" textLength="65.4824" x="778.3589" y="912.4219">Multi-turn</text><text fill="#000000" font-family="sans-serif" font-size="13" lengthAdjust="spacing" textLength="105.7456" x="778.3589" y="927.7324">clarification loop</text><rect fill="#F1F1F1" height="48.2656" rx="12.5" ry="12.5" style="stroke:#444444;stroke-width:0.5;" width="117.8105" x="634.5483" y="891.0313"/><text fill="#000000" font-family="sans-serif" font-size="12" lengthAdjust="spacing" textLength="75.4863" x="644.5483" y="912.6328">Loop back to</text><text fill="#000000" font-family="sans-serif" font-size="12" lengthAdjust="spacing" textLength="97.8105" x="644.5483" y="926.7656">capability_scorer</text><polygon fill="#F1F1F1" points="589.8198,945.2969,601.8198,957.2969,589.8198,969.2969,577.8198,957.2969,589.8198,945.2969" style="stroke:#444444;stroke-width:0.5;"/><rect fill="#F1F1F1" height="48.2656" rx="12.5" ry="12.5" style="stroke:#444444;stroke-width:0.5;" width="187.7949" x="929.1045" y="583.9688"/><text fill="#000000" font-family="sans-serif" font-size="12" font-weight="bold" lengthAdjust="spacing" textLength="156.6211" x="939.1045" y="605.5703">Node 8: clarification_step</text><text fill="#000000" font-family="sans-serif" font-size="12" lengthAdjust="spacing" textLength="7.377" x="1099.5225" y="605.5703">&#9671;</text><text fill="#000000" font-family="sans-serif" font-size="12" lengthAdjust="spacing" textLength="160.3184" x="939.1045" y="619.7031">Directly ask for clarification</text><polygon fill="#F1F1F1" points="806.4109,975.2969,818.4109,987.2969,806.4109,999.2969,794.4109,987.2969,806.4109,975.2969" style="stroke:#444444;stroke-width:0.5;"/><polygon fill="#F1F1F1" points="452.7333,1005.2969,464.7333,1017.2969,452.7333,1029.2969,440.7333,1017.2969,452.7333,1005.2969" style="stroke:#444444;stroke-width:0.5;"/><rect fill="#F1F1F1" height="48.2656" rx="12.5" ry="12.5" style="stroke:#444444;stroke-width:0.5;" width="328.8594" x="288.3036" y="1049.2969"/><text fill="#000000" font-family="sans-serif" font-size="12" font-weight="bold" lengthAdjust="spacing" textLength="178.9277" x="298.3036" y="1070.8984">Node 10: query_reformulator</text><text fill="#000000" font-family="sans-serif" font-size="12" lengthAdjust="spacing" textLength="308.8594" x="298.3036" y="1085.0313">Reformulate query with\nresolved intent + keywords</text><rect fill="#F1F1F1" height="118.9297" rx="12.5" ry="12.5" style="stroke:#444444;stroke-width:0.5;" width="184.6777" x="360.3944" y="1117.5625"/><text fill="#000000" font-family="sans-serif" font-size="12" font-weight="bold" lengthAdjust="spacing" textLength="164.6777" x="370.3944" y="1139.1641">Node 11: output_formatter</text><text fill="#000000" font-family="sans-serif" font-size="12" lengthAdjust="spacing" textLength="117.1465" x="370.3944" y="1153.2969">Package final result:</text><text fill="#000000" font-family="sans-serif" font-size="12" lengthAdjust="spacing" textLength="44.7656" x="370.3944" y="1167.4297">- intent</text><text fill="#000000" font-family="sans-serif" font-size="12" lengthAdjust="spacing" textLength="74.1035" x="370.3944" y="1181.5625">- confidence</text><text fill="#000000" font-family="sans-serif" font-size="12" lengthAdjust="spacing" textLength="122.0566" x="370.3944" y="1195.6953">- matched_keywords</text><text fill="#000000" font-family="sans-serif" font-size="12" lengthAdjust="spacing" textLength="74.6543" x="370.3944" y="1209.8281">- node_trace</text><text fill="#000000" font-family="sans-serif" font-size="12" lengthAdjust="spacing" textLength="109.7578" x="370.3944" y="1223.9609">- capability_scores</text><ellipse cx="452.7333" cy="1267.4922" fill="none" rx="11" ry="11" style="stroke:#222222;stroke-width:1;"/><ellipse cx="452.7333" cy="1267.4922" fill="#222222" rx="6" ry="6" style="stroke:#222222;stroke-width:1;"/><line style="stroke:#181818;stroke-width:1;" x1="452.7333" x2="452.7333" y1="83.9766" y2="103.9766"/><polygon fill="#181818" points="448.7333,93.9766,452.7333,103.9766,456.7333,93.9766,452.7333,97.9766" style="stroke:#181818;stroke-width:1;"/><line style="stroke:#181818;stroke-width:1;" x1="452.7333" x2="452.7333" y1="152.2422" y2="172.2422"/><polygon fill="#181818" points="448.7333,162.2422,452.7333,172.2422,456.7333,162.2422,452.7333,166.2422" style="stroke:#181818;stroke-width:1;"/><line style="stroke:#181818;stroke-width:1;" x1="452.7333" x2="452.7333" y1="220.5078" y2="240.5078"/><polygon fill="#181818" points="448.7333,230.5078,452.7333,240.5078,456.7333,230.5078,452.7333,234.5078" style="stroke:#181818;stroke-width:1;"/><line style="stroke:#181818;stroke-width:1;" x1="452.7333" x2="452.7333" y1="288.7734" y2="308.7734"/><polygon fill="#181818" points="448.7333,298.7734,452.7333,308.7734,456.7333,298.7734,452.7333,302.7734" style="stroke:#181818;stroke-width:1;"/><line style="stroke:#181818;stroke-width:1;" x1="452.7333" x2="452.7333" y1="427.7031" y2="447.7031"/><polygon fill="#181818" points="448.7333,437.7031,452.7333,447.7031,456.7333,437.7031,452.7333,441.7031" style="stroke:#181818;stroke-width:1;"/><line style="stroke:#181818;stroke-width:1;" x1="693.4536" x2="693.4536" y1="734.5" y2="754.5"/><polygon fill="#181818" points="689.4536,744.5,693.4536,754.5,697.4536,744.5,693.4536,748.5" style="stroke:#181818;stroke-width:1;"/><line style="stroke:#181818;stroke-width:1;" x1="693.4536" x2="693.4536" y1="802.7656" y2="822.7656"/><polygon fill="#181818" points="689.4536,812.7656,693.4536,822.7656,697.4536,812.7656,693.4536,816.7656" style="stroke:#181818;stroke-width:1;"/><line style="stroke:#181818;stroke-width:1;" x1="693.4536" x2="693.4536" y1="871.0313" y2="891.0313"/><polygon fill="#181818" points="689.4536,881.0313,693.4536,891.0313,697.4536,881.0313,693.4536,885.0313" style="stroke:#181818;stroke-width:1;"/><line style="stroke:#181818;stroke-width:1;" x1="513.1948" x2="486.186" y1="664.2344" y2="664.2344"/><line style="stroke:#181818;stroke-width:1;" x1="486.186" x2="486.186" y1="664.2344" y2="686.2344"/><polygon fill="#181818" points="482.186,676.2344,486.186,686.2344,490.186,676.2344,486.186,680.2344" style="stroke:#181818;stroke-width:1;"/><line style="stroke:#181818;stroke-width:1;" x1="666.4448" x2="693.4536" y1="664.2344" y2="664.2344"/><line style="stroke:#181818;stroke-width:1;" x1="693.4536" x2="693.4536" y1="664.2344" y2="686.2344"/><polygon fill="#181818" points="689.4536,676.2344,693.4536,686.2344,697.4536,676.2344,693.4536,680.2344" style="stroke:#181818;stroke-width:1;"/><line style="stroke:#181818;stroke-width:1;" x1="486.186" x2="486.186" y1="734.5" y2="957.2969"/><line style="stroke:#181818;stroke-width:1;" x1="486.186" x2="577.8198" y1="957.2969" y2="957.2969"/><polygon fill="#181818" points="567.8198,953.2969,577.8198,957.2969,567.8198,961.2969,571.8198,957.2969" style="stroke:#181818;stroke-width:1;"/><line style="stroke:#181818;stroke-width:1;" x1="693.4536" x2="693.4536" y1="939.2969" y2="957.2969"/><line style="stroke:#181818;stroke-width:1;" x1="693.4536" x2="601.8198" y1="957.2969" y2="957.2969"/><polygon fill="#181818" points="611.8198,953.2969,601.8198,957.2969,611.8198,961.2969,607.8198,957.2969" style="stroke:#181818;stroke-width:1;"/><line style="stroke:#181818;stroke-width:1;" x1="589.8198" x2="589.8198" y1="632.2344" y2="652.2344"/><polygon fill="#181818" points="585.8198,642.2344,589.8198,652.2344,593.8198,642.2344,589.8198,646.2344" style="stroke:#181818;stroke-width:1;"/><line style="stroke:#181818;stroke-width:1;" x1="741.1404" x2="589.8198" y1="561.9688" y2="561.9688"/><line style="stroke:#181818;stroke-width:1;" x1="589.8198" x2="589.8198" y1="561.9688" y2="583.9688"/><polygon fill="#181818" points="585.8198,573.9688,589.8198,583.9688,593.8198,573.9688,589.8198,577.9688" style="stroke:#181818;stroke-width:1;"/><line style="stroke:#181818;stroke-width:1;" x1="871.6814" x2="1023.002" y1="561.9688" y2="561.9688"/><line style="stroke:#181818;stroke-width:1;" x1="1023.002" x2="1023.002" y1="561.9688" y2="583.9688"/><polygon fill="#181818" points="1019.002,573.9688,1023.002,583.9688,1027.002,573.9688,1023.002,577.9688" style="stroke:#181818;stroke-width:1;"/><line style="stroke:#181818;stroke-width:1;" x1="589.8198" x2="589.8198" y1="969.2969" y2="987.2969"/><line style="stroke:#181818;stroke-width:1;" x1="589.8198" x2="794.4109" y1="987.2969" y2="987.2969"/><polygon fill="#181818" points="784.4109,983.2969,794.4109,987.2969,784.4109,991.2969,788.4109,987.2969" style="stroke:#181818;stroke-width:1;"/><line style="stroke:#181818;stroke-width:1;" x1="1023.002" x2="1023.002" y1="632.2344" y2="987.2969"/><line style="stroke:#181818;stroke-width:1;" x1="1023.002" x2="818.4109" y1="987.2969" y2="987.2969"/><polygon fill="#181818" points="828.4109,983.2969,818.4109,987.2969,828.4109,991.2969,824.4109,987.2969" style="stroke:#181818;stroke-width:1;"/><line style="stroke:#181818;stroke-width:1;" x1="383.985" x2="99.0557" y1="527.9688" y2="527.9688"/><line style="stroke:#181818;stroke-width:1;" x1="99.0557" x2="99.0557" y1="527.9688" y2="549.9688"/><polygon fill="#181818" points="95.0557,539.9688,99.0557,549.9688,103.0557,539.9688,99.0557,543.9688" style="stroke:#181818;stroke-width:1;"/><line style="stroke:#181818;stroke-width:1;" x1="521.4816" x2="806.4109" y1="527.9688" y2="527.9688"/><line style="stroke:#181818;stroke-width:1;" x1="806.4109" x2="806.4109" y1="527.9688" y2="549.9688"/><polygon fill="#181818" points="802.4109,539.9688,806.4109,549.9688,810.4109,539.9688,806.4109,543.9688" style="stroke:#181818;stroke-width:1;"/><line style="stroke:#181818;stroke-width:1;" x1="99.0557" x2="99.0557" y1="598.2344" y2="1017.2969"/><line style="stroke:#181818;stroke-width:1;" x1="99.0557" x2="440.7333" y1="1017.2969" y2="1017.2969"/><polygon fill="#181818" points="430.7333,1013.2969,440.7333,1017.2969,430.7333,1021.2969,434.7333,1017.2969" style="stroke:#181818;stroke-width:1;"/><line style="stroke:#181818;stroke-width:1;" x1="806.4109" x2="806.4109" y1="999.2969" y2="1017.2969"/><line style="stroke:#181818;stroke-width:1;" x1="806.4109" x2="464.7333" y1="1017.2969" y2="1017.2969"/><polygon fill="#181818" points="474.7333,1013.2969,464.7333,1017.2969,474.7333,1021.2969,470.7333,1017.2969" style="stroke:#181818;stroke-width:1;"/><line style="stroke:#181818;stroke-width:1;" x1="452.7333" x2="452.7333" y1="495.9688" y2="515.9688"/><polygon fill="#181818" points="448.7333,505.9688,452.7333,515.9688,456.7333,505.9688,452.7333,509.9688" style="stroke:#181818;stroke-width:1;"/><line style="stroke:#181818;stroke-width:1;" x1="452.7333" x2="452.7333" y1="1029.2969" y2="1049.2969"/><polygon fill="#181818" points="448.7333,1039.2969,452.7333,1049.2969,456.7333,1039.2969,452.7333,1043.2969" style="stroke:#181818;stroke-width:1;"/><line style="stroke:#181818;stroke-width:1;" x1="452.7333" x2="452.7333" y1="1097.5625" y2="1117.5625"/><polygon fill="#181818" points="448.7333,1107.5625,452.7333,1117.5625,456.7333,1107.5625,452.7333,1111.5625" style="stroke:#181818;stroke-width:1;"/><line style="stroke:#181818;stroke-width:1;" x1="452.7333" x2="452.7333" y1="1236.4922" y2="1256.4922"/><polygon fill="#181818" points="448.7333,1246.4922,452.7333,1256.4922,456.7333,1246.4922,452.7333,1250.4922" style="stroke:#181818;stroke-width:1;"/><?plantuml-src bLJDRXit4BxlKmpGGoKPCkmcRjCrsiArtS20N0GMYgA5W0NDdPK8SSajEPIYMsvzWG9veBv9dgH3SgMLt1nQws0kv-_xlXcENolJ2ITQU1PolNGscFhMQklWYv_kuw_m1myXIMqKxNwqhaRNUxrEVqL1YZJ2Wo4q1BzQjswqtSAd3t_1vUNqPriZp4aGldMYMy4Tab1wOKQ_FCxWfayBTqeikSwuA3m9HqLHJYOfyh84nX2eOXmUtMHIl8i7S68BWI-ozNe8-Ae4QHdAUwgq5NKAcV4XtcxGUK7A6cYnjMwtC6V0e0N3xcEE4hqgOOsxBHEksE1O0HjptUSprBOLoknT_57WQqOWEl6iD3EhlBGkWPZ70rmDDeM-BAQmDdQhiLvYvP2SmetGV2kjfmezgJO1JZSrCXAKeR-e1ObA6A5tNlduRMLekGLLvwn4xvLPCYfZYTLIonKL0BS7NF24I-N9xM3qsytZRCn6bjC3lfSwUBN1Qi-CBUzO8qsx4X8P-FlZnVaLd4ND6fXUdBzYb-qA3VmHa1DgdgQZHAomQts1feQ8PT3fAdMgKJKQoSoOTqXS9nFuzF7FuZvVu95Jhi-aL0EZs-7w--_WulpDrGzZe0XZj6CYSVnM61oJL1ByoZfYvNZ00FO0lewp5OUMbVTMXroS7UP8lGKQPriWs-NIxfgjWw8bpDUgyp2RFN9RDKzrm-z2QXHkoiMI7jpbea3D8pioDg4oY7MAIM0-HsLW8jfdjGms-EGxGF-c1AtRIch1VMvK6h1edqUPoSBlAzK5k7bWC3RKiTWUMmwGIUdhd3H2I1HUAdeiw3Yv_WVnCenJ0MDsTWkQhfF7Ne-NIT-K4Q4x0AmyOTVFG_PyYmPTcefZlwYqpupwX4z8mPaeHTeIp7rXsZYyXuT-MldRCWBihF5OHUIyZV9xpsuF_HMcT5_wq_A7P3FBanAtAHTUc7zjWRtVyGGziYXg6i5om0adpScoMgPMJMnLbYqkrw5Lu-B_27Yd74hIEn1-3Vr0dFBeY_N_3clueiolcxlDOMtGlJnFXq_id_zMqMfXqb1iiDwFmTddDkKbRtSRAAxtc4KGzHjUhiKIeL6yTlgvYPiofqghSC-UFpXChh0UzjMKzULL6TTqjB_iGWJW-KKN_m00?></g></svg>