<svg xmlns="http://www.w3.org/2000/svg" viewBox="0 0 2400 1600" width="2400" height="1600">
  <defs>
    <!-- Gradients -->
    <linearGradient id="bgGrad" x1="0" y1="0" x2="0.3" y2="1">
      <stop offset="0%" stop-color="#FAFBFF"/>
      <stop offset="100%" stop-color="#F0F4FF"/>
    </linearGradient>
    <linearGradient id="layerUIGrad" x1="0" y1="0" x2="1" y2="0">
      <stop offset="0%" stop-color="#DBEAFE"/>
      <stop offset="100%" stop-color="#E0E7FF"/>
    </linearGradient>
    <linearGradient id="layerAPIGrad" x1="0" y1="0" x2="1" y2="0">
      <stop offset="0%" stop-color="#E0E7FF"/>
      <stop offset="100%" stop-color="#EDE9FE"/>
    </linearGradient>
    <linearGradient id="layerBizGrad" x1="0" y1="0" x2="1" y2="0">
      <stop offset="0%" stop-color="#EDE9FE"/>
      <stop offset="100%" stop-color="#FCE7F3"/>
    </linearGradient>
    <linearGradient id="layerAIGrad" x1="0" y1="0" x2="1" y2="0">
      <stop offset="0%" stop-color="#FEF3C7"/>
      <stop offset="100%" stop-color="#FFEDD5"/>
    </linearGradient>
    <linearGradient id="layerDataGrad" x1="0" y1="0" x2="1" y2="0">
      <stop offset="0%" stop-color="#D1FAE5"/>
      <stop offset="100%" stop-color="#CCFBF1"/>
    </linearGradient>
    <linearGradient id="layerSecGrad" x1="0" y1="0" x2="1" y2="0">
      <stop offset="0%" stop-color="#F1F5F9"/>
      <stop offset="100%" stop-color="#E2E8F0"/>
    </linearGradient>
    <linearGradient id="crosscutGrad" x1="0" y1="0" x2="0" y2="1">
      <stop offset="0%" stop-color="#0F172A"/>
      <stop offset="100%" stop-color="#1E293B"/>
    </linearGradient>

    <!-- Shadows -->
    <filter id="cardShadow" x="-3%" y="-3%" width="106%" height="110%">
      <feDropShadow dx="0" dy="4" stdDeviation="8" flood-color="#1E293B" flood-opacity="0.06"/>
    </filter>
    <filter id="softShadow" x="-2%" y="-2%" width="104%" height="108%">
      <feDropShadow dx="0" dy="2" stdDeviation="5" flood-color="#1E293B" flood-opacity="0.04"/>
    </filter>
    <filter id="layerShadow" x="-1%" y="-2%" width="102%" height="106%">
      <feDropShadow dx="0" dy="3" stdDeviation="6" flood-color="#1E293B" flood-opacity="0.05"/>
    </filter>

    <!-- Arrows -->
    <marker id="arrowDown" viewBox="0 0 12 12" refX="6" refY="10" markerWidth="8" markerHeight="8" orient="auto">
      <path d="M 0 0 L 12 0 L 6 12 z" fill="#94A3B8"/>
    </marker>
    <marker id="arrowRight" viewBox="0 0 12 12" refX="10" refY="6" markerWidth="8" markerHeight="8" orient="auto">
      <path d="M 0 0 L 12 6 L 0 12 z" fill="#94A3B8"/>
    </marker>
  </defs>

  <!-- Background -->
  <rect width="2400" height="1600" rx="24" fill="url(#bgGrad)"/>
  <g opacity="0.03">
    <pattern id="dotGrid2" x="0" y="0" width="40" height="40" patternUnits="userSpaceOnUse">
      <circle cx="20" cy="20" r="1.2" fill="#1E293B"/>
    </pattern>
    <rect width="2400" height="1600" fill="url(#dotGrid2)"/>
  </g>

  <!-- ===== TITLE ===== -->
  <text x="1100" y="58" text-anchor="middle" font-family="Inter, Helvetica, Arial, sans-serif" font-size="38" font-weight="800" fill="#0F172A" letter-spacing="-0.5">System Architecture</text>
  <text x="1100" y="92" text-anchor="middle" font-family="Inter, Helvetica, Arial, sans-serif" font-size="18" fill="#64748B">Six-Layer Architecture with AI Workflow Pipeline</text>

  <!-- ================================================================ -->
  <!-- LAYER 1: USER INTERFACE (Top)                                    -->
  <!-- ================================================================ -->
  <g id="layer-ui" filter="url(#layerShadow)">
    <rect x="60" y="120" width="2080" height="130" rx="18" fill="url(#layerUIGrad)" stroke="#93C5FD" stroke-width="1.5"/>
    <!-- Layer label -->
    <rect x="80" y="132" width="30" height="106" rx="8" fill="#2563EB"/>
    <text x="95" y="198" text-anchor="middle" font-family="Inter, Helvetica, Arial, sans-serif" font-size="12" font-weight="700" fill="#FFFFFF" transform="rotate(-90, 95, 198)">L1</text>
    <text x="130" y="152" font-family="Inter, Helvetica, Arial, sans-serif" font-size="14" font-weight="700" fill="#1E40AF" letter-spacing="2">USER INTERFACE LAYER</text>

    <!-- Component: Next.js -->
    <g filter="url(#softShadow)">
      <rect x="130" y="168" width="320" height="64" rx="14" fill="#FFFFFF" stroke="#BFDBFE" stroke-width="1"/>
      <rect x="148" y="182" width="36" height="36" rx="10" fill="#EFF6FF"/>
      <g transform="translate(156, 190)">
        <rect x="3" y="3" width="14" height="14" rx="2" fill="none" stroke="#2563EB" stroke-width="2"/>
        <path d="M3 9h14" fill="none" stroke="#2563EB" stroke-width="1.5"/>
      </g>
      <text x="196" y="196" font-family="Inter, Helvetica, Arial, sans-serif" font-size="16" font-weight="700" fill="#1E293B">Next.js Web App</text>
      <text x="196" y="216" font-family="Inter, Helvetica, Arial, sans-serif" font-size="12" fill="#64748B">React 18 + TypeScript + Tailwind CSS</text>
    </g>

    <!-- Component: Chat Interface -->
    <g filter="url(#softShadow)">
      <rect x="480" y="168" width="280" height="64" rx="14" fill="#FFFFFF" stroke="#BFDBFE" stroke-width="1"/>
      <rect x="498" y="182" width="36" height="36" rx="10" fill="#EFF6FF"/>
      <g transform="translate(506, 190)">
        <path d="M16 12a6 6 0 01-.8 3L16 18l-3.5-.8A7 7 0 111-11z" fill="none" stroke="#2563EB" stroke-width="1.8"/>
      </g>
      <text x="546" y="196" font-family="Inter, Helvetica, Arial, sans-serif" font-size="16" font-weight="700" fill="#1E293B">Workflow Chat</text>
      <text x="546" y="216" font-family="Inter, Helvetica, Arial, sans-serif" font-size="12" fill="#64748B">Multi-turn conversation UI</text>
    </g>

    <!-- Component: Dashboards -->
    <g filter="url(#softShadow)">
      <rect x="790" y="168" width="280" height="64" rx="14" fill="#FFFFFF" stroke="#BFDBFE" stroke-width="1"/>
      <rect x="808" y="182" width="36" height="36" rx="10" fill="#EFF6FF"/>
      <g transform="translate(816, 190)">
        <rect x="2" y="10" width="4" height="8" fill="#2563EB" rx="1"/>
        <rect x="8" y="5" width="4" height="13" fill="#2563EB" rx="1" opacity="0.7"/>
        <rect x="14" y="8" width="4" height="10" fill="#2563EB" rx="1" opacity="0.5"/>
      </g>
      <text x="856" y="196" font-family="Inter, Helvetica, Arial, sans-serif" font-size="16" font-weight="700" fill="#1E293B">Analytics Dashboard</text>
      <text x="856" y="216" font-family="Inter, Helvetica, Arial, sans-serif" font-size="12" fill="#64748B">Data visualization + cost reports</text>
    </g>

    <!-- Component: Document Manager -->
    <g filter="url(#softShadow)">
      <rect x="1100" y="168" width="280" height="64" rx="14" fill="#FFFFFF" stroke="#BFDBFE" stroke-width="1"/>
      <rect x="1118" y="182" width="36" height="36" rx="10" fill="#EFF6FF"/>
      <g transform="translate(1126, 190)">
        <path d="M12 2H6a2 2 0 00-2 2v14a2 2 0 002 2h10a2 2 0 002-2V8z" fill="none" stroke="#2563EB" stroke-width="1.8"/>
        <polyline points="12 2 12 8 18 8" fill="none" stroke="#2563EB" stroke-width="1.8"/>
      </g>
      <text x="1166" y="196" font-family="Inter, Helvetica, Arial, sans-serif" font-size="16" font-weight="700" fill="#1E293B">Document Manager</text>
      <text x="1166" y="216" font-family="Inter, Helvetica, Arial, sans-serif" font-size="12" fill="#64748B">Upload, view, manage files</text>
    </g>

    <!-- Component: API Proxy -->
    <g filter="url(#softShadow)">
      <rect x="1410" y="168" width="280" height="64" rx="14" fill="#FFFFFF" stroke="#BFDBFE" stroke-width="1"/>
      <rect x="1428" y="182" width="36" height="36" rx="10" fill="#EFF6FF"/>
      <g transform="translate(1436, 190)">
        <path d="M10 6l-6 6 6 6M18 6l6 6-6 6" fill="none" stroke="#2563EB" stroke-width="1.8" stroke-linecap="round"/>
      </g>
      <text x="1476" y="196" font-family="Inter, Helvetica, Arial, sans-serif" font-size="16" font-weight="700" fill="#1E293B">API Proxy Route</text>
      <text x="1476" y="216" font-family="Inter, Helvetica, Arial, sans-serif" font-size="12" fill="#64748B">/api/backend/[...path]</text>
    </g>
  </g>

  <!-- Down Arrow L1 -> L2 -->
  <path d="M1100 250 L1100 270" stroke="#94A3B8" stroke-width="2.5" marker-end="url(#arrowDown)" opacity="0.5"/>

  <!-- ================================================================ -->
  <!-- LAYER 2: API GATEWAY                                             -->
  <!-- ================================================================ -->
  <g id="layer-api" filter="url(#layerShadow)">
    <rect x="60" y="280" width="2080" height="130" rx="18" fill="url(#layerAPIGrad)" stroke="#A5B4FC" stroke-width="1.5"/>
    <rect x="80" y="292" width="30" height="106" rx="8" fill="#4F46E5"/>
    <text x="95" y="358" text-anchor="middle" font-family="Inter, Helvetica, Arial, sans-serif" font-size="12" font-weight="700" fill="#FFFFFF" transform="rotate(-90, 95, 358)">L2</text>
    <text x="130" y="312" font-family="Inter, Helvetica, Arial, sans-serif" font-size="14" font-weight="700" fill="#3730A3" letter-spacing="2">API GATEWAY LAYER</text>

    <!-- FastAPI -->
    <g filter="url(#softShadow)">
      <rect x="130" y="328" width="260" height="64" rx="14" fill="#FFFFFF" stroke="#C7D2FE" stroke-width="1"/>
      <rect x="148" y="342" width="36" height="36" rx="10" fill="#EDE9FE"/>
      <g transform="translate(156, 350)">
        <path d="M13 6l-8 12h12l-8 12" fill="none" stroke="#4F46E5" stroke-width="2" stroke-linecap="round" stroke-linejoin="round"/>
      </g>
      <text x="196" y="356" font-family="Inter, Helvetica, Arial, sans-serif" font-size="16" font-weight="700" fill="#1E293B">FastAPI Server</text>
      <text x="196" y="376" font-family="Inter, Helvetica, Arial, sans-serif" font-size="12" fill="#64748B">uvicorn + auto-reload</text>
    </g>

    <!-- Auth -->
    <g filter="url(#softShadow)">
      <rect x="420" y="328" width="240" height="64" rx="14" fill="#FFFFFF" stroke="#C7D2FE" stroke-width="1"/>
      <rect x="438" y="342" width="36" height="36" rx="10" fill="#EDE9FE"/>
      <g transform="translate(446, 350)">
        <rect x="4" y="10" width="14" height="10" rx="2" fill="none" stroke="#4F46E5" stroke-width="1.8"/>
        <path d="M7 10V7a4 4 0 018 0v3" fill="none" stroke="#4F46E5" stroke-width="1.8"/>
      </g>
      <text x="486" y="356" font-family="Inter, Helvetica, Arial, sans-serif" font-size="16" font-weight="700" fill="#1E293B">Authentication</text>
      <text x="486" y="376" font-family="Inter, Helvetica, Arial, sans-serif" font-size="12" fill="#64748B">JWT + API key validation</text>
    </g>

    <!-- Tenant Isolation -->
    <g filter="url(#softShadow)">
      <rect x="690" y="328" width="260" height="64" rx="14" fill="#FFFFFF" stroke="#C7D2FE" stroke-width="1"/>
      <rect x="708" y="342" width="36" height="36" rx="10" fill="#EDE9FE"/>
      <g transform="translate(716, 350)">
        <circle cx="9" cy="7" r="4" fill="none" stroke="#4F46E5" stroke-width="1.8"/>
        <path d="M2 18c0-4 3.5-7 7-7s7 3 7 7" fill="none" stroke="#4F46E5" stroke-width="1.8"/>
        <circle cx="17" cy="7" r="3" fill="none" stroke="#4F46E5" stroke-width="1.5" opacity="0.5"/>
      </g>
      <text x="756" y="356" font-family="Inter, Helvetica, Arial, sans-serif" font-size="16" font-weight="700" fill="#1E293B">Tenant Isolation</text>
      <text x="756" y="376" font-family="Inter, Helvetica, Arial, sans-serif" font-size="12" fill="#64748B">X-Tenant-ID + rate limiting</text>
    </g>

    <!-- Input Validation -->
    <g filter="url(#softShadow)">
      <rect x="980" y="328" width="260" height="64" rx="14" fill="#FFFFFF" stroke="#C7D2FE" stroke-width="1"/>
      <rect x="998" y="342" width="36" height="36" rx="10" fill="#EDE9FE"/>
      <g transform="translate(1006, 350)">
        <path d="M9 12l2 2 4-4" fill="none" stroke="#4F46E5" stroke-width="2" stroke-linecap="round"/>
        <rect x="3" y="3" width="16" height="16" rx="3" fill="none" stroke="#4F46E5" stroke-width="1.8"/>
      </g>
      <text x="1046" y="356" font-family="Inter, Helvetica, Arial, sans-serif" font-size="16" font-weight="700" fill="#1E293B">Input Validation</text>
      <text x="1046" y="376" font-family="Inter, Helvetica, Arial, sans-serif" font-size="12" fill="#64748B">Pydantic + sanitizer</text>
    </g>

    <!-- Route Mounting -->
    <g filter="url(#softShadow)">
      <rect x="1270" y="328" width="340" height="64" rx="14" fill="#FFFFFF" stroke="#C7D2FE" stroke-width="1"/>
      <rect x="1288" y="342" width="36" height="36" rx="10" fill="#EDE9FE"/>
      <g transform="translate(1296, 350)">
        <path d="M4 12h16M12 4v16" fill="none" stroke="#4F46E5" stroke-width="1.8" stroke-linecap="round"/>
      </g>
      <text x="1336" y="356" font-family="Inter, Helvetica, Arial, sans-serif" font-size="16" font-weight="700" fill="#1E293B">Router Mount</text>
      <text x="1336" y="376" font-family="Inter, Helvetica, Arial, sans-serif" font-size="12" fill="#64748B">/api/v1/workflow | /query | /cost | /docs</text>
    </g>
  </g>

  <!-- Down Arrow L2 -> L3 -->
  <path d="M1100 410 L1100 430" stroke="#94A3B8" stroke-width="2.5" marker-end="url(#arrowDown)" opacity="0.5"/>

  <!-- ================================================================ -->
  <!-- LAYER 3: BUSINESS SERVICES                                       -->
  <!-- ================================================================ -->
  <g id="layer-biz" filter="url(#layerShadow)">
    <rect x="60" y="440" width="2080" height="180" rx="18" fill="url(#layerBizGrad)" stroke="#D8B4FE" stroke-width="1.5"/>
    <rect x="80" y="452" width="30" height="156" rx="8" fill="#7C3AED"/>
    <text x="95" y="543" text-anchor="middle" font-family="Inter, Helvetica, Arial, sans-serif" font-size="12" font-weight="700" fill="#FFFFFF" transform="rotate(-90, 95, 543)">L3</text>
    <text x="130" y="472" font-family="Inter, Helvetica, Arial, sans-serif" font-size="14" font-weight="700" fill="#6D28D9" letter-spacing="2">BUSINESS SERVICES LAYER</text>

    <!-- Intent Classification - Highlighted -->
    <g filter="url(#cardShadow)">
      <rect x="130" y="490" width="480" height="110" rx="16" fill="#7C3AED" stroke="#6D28D9" stroke-width="1"/>
      <g transform="translate(150, 508)">
        <circle cx="22" cy="22" r="18" fill="rgba(255,255,255,0.15)"/>
        <path d="M22 12 L22 22 L30 28" fill="none" stroke="#FFFFFF" stroke-width="2.5" stroke-linecap="round"/>
        <circle cx="22" cy="22" r="10" fill="none" stroke="#FFFFFF" stroke-width="1.5"/>
      </g>
      <text x="200" y="520" font-family="Inter, Helvetica, Arial, sans-serif" font-size="18" font-weight="700" fill="#FFFFFF">Intent Classification</text>
      <text x="200" y="544" font-family="Inter, Helvetica, Arial, sans-serif" font-size="13" fill="#E9D5FF">11-node LangGraph StateGraph</text>
      <text x="200" y="564" font-family="Inter, Helvetica, Arial, sans-serif" font-size="13" fill="#E9D5FF">Confidence routing (threshold: 0.8)</text>
      <text x="200" y="584" font-family="Inter, Helvetica, Arial, sans-serif" font-size="13" fill="#E9D5FF">Multi-turn clarification (max 2 rounds)</text>
    </g>

    <!-- Routing Decision -->
    <g filter="url(#softShadow)">
      <rect x="640" y="490" width="280" height="110" rx="16" fill="#FFFFFF" stroke="#E9D5FF" stroke-width="1.5"/>
      <rect x="658" y="508" width="40" height="40" rx="12" fill="#FDF4FF"/>
      <g transform="translate(666, 516)">
        <path d="M4 12h16M12 4l8 8-8 8" fill="none" stroke="#7C3AED" stroke-width="2" stroke-linecap="round" stroke-linejoin="round"/>
      </g>
      <text x="710" y="524" font-family="Inter, Helvetica, Arial, sans-serif" font-size="16" font-weight="700" fill="#1E293B">Routing Decision</text>
      <text x="710" y="548" font-family="Inter, Helvetica, Arial, sans-serif" font-size="12" fill="#64748B">Path A: RAG retrieval</text>
      <text x="710" y="566" font-family="Inter, Helvetica, Arial, sans-serif" font-size="12" fill="#64748B">Path B: Cost estimation</text>
      <text x="710" y="584" font-family="Inter, Helvetica, Arial, sans-serif" font-size="12" fill="#64748B">Path C: Data analysis agent</text>
    </g>

    <!-- Workflow Pipeline -->
    <g filter="url(#softShadow)">
      <rect x="950" y="490" width="360" height="110" rx="16" fill="#FFFFFF" stroke="#E9D5FF" stroke-width="1.5"/>
      <rect x="968" y="508" width="40" height="40" rx="12" fill="#FDF4FF"/>
      <g transform="translate(976, 516)">
        <path d="M6 8l6 6 6-6" fill="none" stroke="#7C3AED" stroke-width="2" stroke-linecap="round"/>
        <line x1="12" y1="6" x2="12" y2="16" stroke="#7C3AED" stroke-width="2" stroke-linecap="round"/>
      </g>
      <text x="1020" y="524" font-family="Inter, Helvetica, Arial, sans-serif" font-size="16" font-weight="700" fill="#1E293B">Workflow Pipeline</text>
      <text x="1020" y="548" font-family="Inter, Helvetica, Arial, sans-serif" font-size="12" fill="#64748B">10-node fixed-order execution</text>
      <text x="1020" y="566" font-family="Inter, Helvetica, Arial, sans-serif" font-size="12" fill="#7C3AED" font-weight="600">intent > safety > cost > retrieval ></text>
      <text x="1020" y="584" font-family="Inter, Helvetica, Arial, sans-serif" font-size="12" fill="#7C3AED" font-weight="600">rerank > prompt > route > exec > resp > ground</text>
    </g>

    <!-- Prompt Manager -->
    <g filter="url(#softShadow)">
      <rect x="1340" y="490" width="280" height="110" rx="16" fill="#FFFFFF" stroke="#E9D5FF" stroke-width="1.5"/>
      <rect x="1358" y="508" width="40" height="40" rx="12" fill="#FDF4FF"/>
      <g transform="translate(1366, 516)">
        <path d="M4 4h14a2 2 0 012 2v12a2 2 0 01-2 2H4V4z" fill="none" stroke="#7C3AED" stroke-width="1.8"/>
        <path d="M8 10h8M8 14h5" fill="none" stroke="#7C3AED" stroke-width="1.5" stroke-linecap="round"/>
      </g>
      <text x="1410" y="524" font-family="Inter, Helvetica, Arial, sans-serif" font-size="16" font-weight="700" fill="#1E293B">Prompt Manager</text>
      <text x="1410" y="548" font-family="Inter, Helvetica, Arial, sans-serif" font-size="12" fill="#64748B">Versioned prompt templates</text>
      <text x="1410" y="566" font-family="Inter, Helvetica, Arial, sans-serif" font-size="12" fill="#64748B">A/B testing with scoring</text>
    </g>

    <!-- Memory Manager -->
    <g filter="url(#softShadow)">
      <rect x="1650" y="490" width="280" height="110" rx="16" fill="#FFFFFF" stroke="#E9D5FF" stroke-width="1.5"/>
      <rect x="1668" y="508" width="40" height="40" rx="12" fill="#FDF4FF"/>
      <g transform="translate(1676, 516)">
        <circle cx="12" cy="12" r="9" fill="none" stroke="#7C3AED" stroke-width="1.8"/>
        <path d="M12 8v4l3 3" fill="none" stroke="#7C3AED" stroke-width="1.8" stroke-linecap="round"/>
      </g>
      <text x="1720" y="524" font-family="Inter, Helvetica, Arial, sans-serif" font-size="16" font-weight="700" fill="#1E293B">Memory Manager</text>
      <text x="1720" y="548" font-family="Inter, Helvetica, Arial, sans-serif" font-size="12" fill="#64748B">3-layer: short-term, summary,</text>
      <text x="1720" y="566" font-family="Inter, Helvetica, Arial, sans-serif" font-size="12" fill="#64748B">long-term conversation memory</text>
    </g>
  </g>

  <!-- Down Arrow L3 -> L4 -->
  <path d="M1100 620 L1100 640" stroke="#94A3B8" stroke-width="2.5" marker-end="url(#arrowDown)" opacity="0.5"/>

  <!-- ================================================================ -->
  <!-- LAYER 4: AI RUNTIME (Core Layer — tallest)                       -->
  <!-- ================================================================ -->
  <g id="layer-ai" filter="url(#layerShadow)">
    <rect x="60" y="650" width="2080" height="270" rx="18" fill="url(#layerAIGrad)" stroke="#FCD34D" stroke-width="1.5"/>
    <rect x="80" y="662" width="30" height="246" rx="8" fill="#D97706"/>
    <text x="95" y="800" text-anchor="middle" font-family="Inter, Helvetica, Arial, sans-serif" font-size="12" font-weight="700" fill="#FFFFFF" transform="rotate(-90, 95, 800)">L4</text>
    <text x="130" y="682" font-family="Inter, Helvetica, Arial, sans-serif" font-size="14" font-weight="700" fill="#B45309" letter-spacing="2">AI RUNTIME LAYER</text>

    <!-- RAG Engine Block -->
    <g filter="url(#cardShadow)">
      <rect x="130" y="700" width="560" height="195" rx="16" fill="#FFFFFF" stroke="#FDE68A" stroke-width="1.5"/>
      <rect x="148" y="712" width="180" height="28" rx="14" fill="#2563EB"/>
      <text x="238" y="732" text-anchor="middle" font-family="Inter, Helvetica, Arial, sans-serif" font-size="13" font-weight="700" fill="#FFFFFF">RAG Engine</text>

      <!-- Sub: Document Ingestion -->
      <rect x="150" y="752" width="160" height="56" rx="10" fill="#EFF6FF" stroke="#BFDBFE" stroke-width="1"/>
      <text x="230" y="774" text-anchor="middle" font-family="Inter, Helvetica, Arial, sans-serif" font-size="13" font-weight="600" fill="#1E293B">Doc Ingestion</text>
      <text x="230" y="794" text-anchor="middle" font-family="Inter, Helvetica, Arial, sans-serif" font-size="11" fill="#64748B">PDF + OCR + chunking</text>

      <!-- Sub: Hybrid Search -->
      <rect x="330" y="752" width="160" height="56" rx="10" fill="#EFF6FF" stroke="#BFDBFE" stroke-width="1"/>
      <text x="410" y="774" text-anchor="middle" font-family="Inter, Helvetica, Arial, sans-serif" font-size="13" font-weight="600" fill="#1E293B">Hybrid Search</text>
      <text x="410" y="794" text-anchor="middle" font-family="Inter, Helvetica, Arial, sans-serif" font-size="11" fill="#64748B">BM25 + vector + RRF</text>

      <!-- Sub: Reranker -->
      <rect x="510" y="752" width="160" height="56" rx="10" fill="#EFF6FF" stroke="#BFDBFE" stroke-width="1"/>
      <text x="590" y="774" text-anchor="middle" font-family="Inter, Helvetica, Arial, sans-serif" font-size="13" font-weight="600" fill="#1E293B">Reranker</text>
      <text x="590" y="794" text-anchor="middle" font-family="Inter, Helvetica, Arial, sans-serif" font-size="11" fill="#64748B">bge-reranker-base</text>

      <!-- Sub: Embedder -->
      <rect x="150" y="820" width="160" height="56" rx="10" fill="#EFF6FF" stroke="#BFDBFE" stroke-width="1"/>
      <text x="230" y="842" text-anchor="middle" font-family="Inter, Helvetica, Arial, sans-serif" font-size="13" font-weight="600" fill="#1E293B">Embedder</text>
      <text x="230" y="862" text-anchor="middle" font-family="Inter, Helvetica, Arial, sans-serif" font-size="11" fill="#64748B">nomic-embed-v1.5 (768d)</text>

      <!-- Sub: Groundedness -->
      <rect x="330" y="820" width="160" height="56" rx="10" fill="#ECFDF5" stroke="#A7F3D0" stroke-width="1"/>
      <text x="410" y="842" text-anchor="middle" font-family="Inter, Helvetica, Arial, sans-serif" font-size="13" font-weight="600" fill="#1E293B">Groundedness</text>
      <text x="410" y="862" text-anchor="middle" font-family="Inter, Helvetica, Arial, sans-serif" font-size="11" fill="#64748B">Answer quality check</text>

      <!-- Sub: Query Cache -->
      <rect x="510" y="820" width="160" height="56" rx="10" fill="#FEF3C7" stroke="#FDE68A" stroke-width="1"/>
      <text x="590" y="842" text-anchor="middle" font-family="Inter, Helvetica, Arial, sans-serif" font-size="13" font-weight="600" fill="#1E293B">Query Cache</text>
      <text x="590" y="862" text-anchor="middle" font-family="Inter, Helvetica, Arial, sans-serif" font-size="11" fill="#64748B">TTL=120s response cache</text>

      <!-- Internal arrows -->
      <path d="M310 780 L330 780" fill="none" stroke="#93C5FD" stroke-width="1.5" marker-end="url(#arrowRight)" opacity="0.4"/>
      <path d="M490 780 L510 780" fill="none" stroke="#93C5FD" stroke-width="1.5" marker-end="url(#arrowRight)" opacity="0.4"/>
    </g>

    <!-- LLM Dispatch Block -->
    <g filter="url(#cardShadow)">
      <rect x="720" y="700" width="360" height="195" rx="16" fill="#FFFFFF" stroke="#FDE68A" stroke-width="1.5"/>
      <rect x="738" y="712" width="200" height="28" rx="14" fill="#D97706"/>
      <text x="838" y="732" text-anchor="middle" font-family="Inter, Helvetica, Arial, sans-serif" font-size="13" font-weight="700" fill="#FFFFFF">LLM Dispatch</text>

      <!-- Sub: Ollama Local -->
      <rect x="740" y="752" width="155" height="80" rx="10" fill="#FEF3C7" stroke="#FDE68A" stroke-width="1"/>
      <text x="817" y="778" text-anchor="middle" font-family="Inter, Helvetica, Arial, sans-serif" font-size="14" font-weight="700" fill="#B45309">Ollama (Local)</text>
      <text x="817" y="798" text-anchor="middle" font-family="Inter, Helvetica, Arial, sans-serif" font-size="11" fill="#64748B">Qwen 3.5:4b/9b</text>
      <text x="817" y="816" text-anchor="middle" font-family="Inter, Helvetica, Arial, sans-serif" font-size="11" fill="#64748B">Metal GPU accel</text>

      <!-- Sub: Cloud API -->
      <rect x="905" y="752" width="155" height="80" rx="10" fill="#F1F5F9" stroke="#E2E8F0" stroke-width="1"/>
      <text x="982" y="778" text-anchor="middle" font-family="Inter, Helvetica, Arial, sans-serif" font-size="14" font-weight="700" fill="#475569">Cloud APIs</text>
      <text x="982" y="798" text-anchor="middle" font-family="Inter, Helvetica, Arial, sans-serif" font-size="11" fill="#64748B">Zhipu / Gemini</text>
      <text x="982" y="816" text-anchor="middle" font-family="Inter, Helvetica, Arial, sans-serif" font-size="11" fill="#64748B">Code gen only</text>

      <!-- Sub: Hybrid Routing -->
      <rect x="740" y="844" width="320" height="38" rx="10" fill="#FFF7ED" stroke="#FDE68A" stroke-width="1"/>
      <text x="900" y="868" text-anchor="middle" font-family="Inter, Helvetica, Arial, sans-serif" font-size="12" font-weight="600" fill="#B45309">Hybrid routing: local_only | hybrid_auto | cloud_only</text>
    </g>

    <!-- Code Executor Block -->
    <g filter="url(#cardShadow)">
      <rect x="1110" y="700" width="340" height="195" rx="16" fill="#FFFFFF" stroke="#FDE68A" stroke-width="1.5"/>
      <rect x="1128" y="712" width="200" height="28" rx="14" fill="#9333EA"/>
      <text x="1228" y="732" text-anchor="middle" font-family="Inter, Helvetica, Arial, sans-serif" font-size="13" font-weight="700" fill="#FFFFFF">Code Executor</text>

      <!-- Sub: Docker Sandbox -->
      <rect x="1130" y="752" width="150" height="56" rx="10" fill="#FDF4FF" stroke="#E9D5FF" stroke-width="1"/>
      <text x="1205" y="774" text-anchor="middle" font-family="Inter, Helvetica, Arial, sans-serif" font-size="13" font-weight="600" fill="#1E293B">Docker Sandbox</text>
      <text x="1205" y="794" text-anchor="middle" font-family="Inter, Helvetica, Arial, sans-serif" font-size="11" fill="#64748B">Isolated execution</text>

      <!-- Sub: Code Validator -->
      <rect x="1290" y="752" width="140" height="56" rx="10" fill="#FDF4FF" stroke="#E9D5FF" stroke-width="1"/>
      <text x="1360" y="774" text-anchor="middle" font-family="Inter, Helvetica, Arial, sans-serif" font-size="13" font-weight="600" fill="#1E293B">Code Validator</text>
      <text x="1360" y="794" text-anchor="middle" font-family="Inter, Helvetica, Arial, sans-serif" font-size="11" fill="#64748B">Security checks</text>

      <!-- Sub: Data Analysis Agent -->
      <rect x="1130" y="820" width="300" height="56" rx="10" fill="#FDF4FF" stroke="#E9D5FF" stroke-width="1"/>
      <text x="1280" y="842" text-anchor="middle" font-family="Inter, Helvetica, Arial, sans-serif" font-size="13" font-weight="600" fill="#1E293B">Data Analysis Agent</text>
      <text x="1280" y="862" text-anchor="middle" font-family="Inter, Helvetica, Arial, sans-serif" font-size="11" fill="#64748B">Metadata extraction + cloud LLM code gen</text>
    </g>

    <!-- Cost Estimation Block -->
    <g filter="url(#cardShadow)">
      <rect x="1480" y="700" width="340" height="195" rx="16" fill="#FFFFFF" stroke="#FDE68A" stroke-width="1.5"/>
      <rect x="1498" y="712" width="200" height="28" rx="14" fill="#16A34A"/>
      <text x="1598" y="732" text-anchor="middle" font-family="Inter, Helvetica, Arial, sans-serif" font-size="13" font-weight="700" fill="#FFFFFF">Cost Estimation</text>

      <!-- Sub: Feature Eng -->
      <rect x="1500" y="752" width="150" height="56" rx="10" fill="#F0FDF4" stroke="#BBF7D0" stroke-width="1"/>
      <text x="1575" y="774" text-anchor="middle" font-family="Inter, Helvetica, Arial, sans-serif" font-size="13" font-weight="600" fill="#1E293B">Feature Eng</text>
      <text x="1575" y="794" text-anchor="middle" font-family="Inter, Helvetica, Arial, sans-serif" font-size="11" fill="#64748B">7 input features</text>

      <!-- Sub: Ridge Model -->
      <rect x="1660" y="752" width="140" height="56" rx="10" fill="#16A34A" stroke="#15803D" stroke-width="1"/>
      <text x="1730" y="774" text-anchor="middle" font-family="Inter, Helvetica, Arial, sans-serif" font-size="13" font-weight="700" fill="#FFFFFF">Ridge Model</text>
      <text x="1730" y="794" text-anchor="middle" font-family="Inter, Helvetica, Arial, sans-serif" font-size="11" fill="#D1FAE5">scikit-learn</text>

      <!-- Sub: Dataset -->
      <rect x="1500" y="820" width="300" height="56" rx="10" fill="#F0FDF4" stroke="#BBF7D0" stroke-width="1"/>
      <text x="1650" y="842" text-anchor="middle" font-family="Inter, Helvetica, Arial, sans-serif" font-size="13" font-weight="600" fill="#1E293B">Training Dataset</text>
      <text x="1650" y="862" text-anchor="middle" font-family="Inter, Helvetica, Arial, sans-serif" font-size="11" fill="#64748B">10,000+ construction project records</text>
    </g>

    <!-- Unified Agent Block -->
    <g filter="url(#cardShadow)">
      <rect x="1850" y="700" width="270" height="195" rx="16" fill="#FFFFFF" stroke="#FDE68A" stroke-width="1.5"/>
      <rect x="1868" y="712" width="180" height="28" rx="14" fill="#0284C7"/>
      <text x="1958" y="732" text-anchor="middle" font-family="Inter, Helvetica, Arial, sans-serif" font-size="13" font-weight="700" fill="#FFFFFF">Unified Agent</text>

      <text x="1870" y="770" font-family="Inter, Helvetica, Arial, sans-serif" font-size="13" font-weight="600" fill="#1E293B">12 integrated tools:</text>
      <text x="1870" y="792" font-family="Inter, Helvetica, Arial, sans-serif" font-size="12" fill="#64748B">RAG search, code execution,</text>
      <text x="1870" y="810" font-family="Inter, Helvetica, Arial, sans-serif" font-size="12" fill="#64748B">data analysis, web search,</text>
      <text x="1870" y="828" font-family="Inter, Helvetica, Arial, sans-serif" font-size="12" fill="#64748B">math, cost estimation,</text>
      <text x="1870" y="846" font-family="Inter, Helvetica, Arial, sans-serif" font-size="12" fill="#64748B">document processing ...</text>

      <rect x="1868" y="860" width="230" height="24" rx="8" fill="#F0F9FF" stroke="#BAE6FD" stroke-width="1"/>
      <text x="1983" y="877" text-anchor="middle" font-family="Inter, Helvetica, Arial, sans-serif" font-size="11" font-weight="600" fill="#0284C7">LangChain ReAct pattern</text>
    </g>
  </g>

  <!-- Down Arrow L4 -> L5 -->
  <path d="M1100 920 L1100 940" stroke="#94A3B8" stroke-width="2.5" marker-end="url(#arrowDown)" opacity="0.5"/>

  <!-- ================================================================ -->
  <!-- LAYER 5: DATA STORAGE                                            -->
  <!-- ================================================================ -->
  <g id="layer-data" filter="url(#layerShadow)">
    <rect x="60" y="950" width="2080" height="140" rx="18" fill="url(#layerDataGrad)" stroke="#6EE7B7" stroke-width="1.5"/>
    <rect x="80" y="962" width="30" height="116" rx="8" fill="#059669"/>
    <text x="95" y="1033" text-anchor="middle" font-family="Inter, Helvetica, Arial, sans-serif" font-size="12" font-weight="700" fill="#FFFFFF" transform="rotate(-90, 95, 1033)">L5</text>
    <text x="130" y="982" font-family="Inter, Helvetica, Arial, sans-serif" font-size="14" font-weight="700" fill="#047857" letter-spacing="2">DATA STORAGE LAYER</text>

    <!-- PostgreSQL + pgvector -->
    <g filter="url(#softShadow)">
      <rect x="130" y="1000" width="340" height="70" rx="14" fill="#FFFFFF" stroke="#A7F3D0" stroke-width="1.5"/>
      <rect x="148" y="1014" width="40" height="40" rx="12" fill="#ECFDF5"/>
      <g transform="translate(156, 1022)">
        <ellipse cx="12" cy="6" rx="9" ry="4" fill="none" stroke="#059669" stroke-width="2"/>
        <path d="M3 12c0 2 4 4 9 4s9-2 9-4" fill="none" stroke="#059669" stroke-width="1.5"/>
        <path d="M3 6v12c0 2 4 4 9 4s9-2 9-4V6" fill="none" stroke="#059669" stroke-width="1.5"/>
      </g>
      <text x="200" y="1028" font-family="Inter, Helvetica, Arial, sans-serif" font-size="17" font-weight="700" fill="#1E293B">PostgreSQL + pgvector</text>
      <text x="200" y="1050" font-family="Inter, Helvetica, Arial, sans-serif" font-size="12" fill="#64748B">vector(768) embeddings, IVFFlat index, port 5433</text>
    </g>

    <!-- Document Chunks -->
    <g filter="url(#softShadow)">
      <rect x="500" y="1000" width="250" height="70" rx="14" fill="#FFFFFF" stroke="#A7F3D0" stroke-width="1.5"/>
      <rect x="518" y="1014" width="40" height="40" rx="12" fill="#ECFDF5"/>
      <g transform="translate(526, 1022)">
        <path d="M14 2H6a2 2 0 00-2 2v16a2 2 0 002 2h12a2 2 0 002-2V8z" fill="none" stroke="#059669" stroke-width="1.8"/>
      </g>
      <text x="570" y="1028" font-family="Inter, Helvetica, Arial, sans-serif" font-size="16" font-weight="700" fill="#1E293B">document_chunks</text>
      <text x="570" y="1050" font-family="Inter, Helvetica, Arial, sans-serif" font-size="12" fill="#64748B">~12 construction docs</text>
    </g>

    <!-- Prompt Versions -->
    <g filter="url(#softShadow)">
      <rect x="780" y="1000" width="250" height="70" rx="14" fill="#FFFFFF" stroke="#A7F3D0" stroke-width="1.5"/>
      <rect x="798" y="1014" width="40" height="40" rx="12" fill="#ECFDF5"/>
      <g transform="translate(806, 1022)">
        <path d="M4 4h14a2 2 0 012 2v12a2 2 0 01-2 2H4V4z" fill="none" stroke="#059669" stroke-width="1.8"/>
      </g>
      <text x="850" y="1028" font-family="Inter, Helvetica, Arial, sans-serif" font-size="16" font-weight="700" fill="#1E293B">prompt_versions</text>
      <text x="850" y="1050" font-family="Inter, Helvetica, Arial, sans-serif" font-size="12" fill="#64748B">Versioned templates + scores</text>
    </g>

    <!-- Conversation Memory -->
    <g filter="url(#softShadow)">
      <rect x="1060" y="1000" width="280" height="70" rx="14" fill="#FFFFFF" stroke="#A7F3D0" stroke-width="1.5"/>
      <rect x="1078" y="1014" width="40" height="40" rx="12" fill="#ECFDF5"/>
      <g transform="translate(1086, 1022)">
        <circle cx="12" cy="12" r="9" fill="none" stroke="#059669" stroke-width="1.8"/>
        <path d="M12 8v4l3 3" fill="none" stroke="#059669" stroke-width="1.8" stroke-linecap="round"/>
      </g>
      <text x="1130" y="1028" font-family="Inter, Helvetica, Arial, sans-serif" font-size="16" font-weight="700" fill="#1E293B">conversation_memories</text>
      <text x="1130" y="1050" font-family="Inter, Helvetica, Arial, sans-serif" font-size="12" fill="#64748B">3-layer memory + vectors</text>
    </g>

    <!-- LLM Usage Logs -->
    <g filter="url(#softShadow)">
      <rect x="1370" y="1000" width="250" height="70" rx="14" fill="#FFFFFF" stroke="#A7F3D0" stroke-width="1.5"/>
      <rect x="1388" y="1014" width="40" height="40" rx="12" fill="#ECFDF5"/>
      <g transform="translate(1396, 1022)">
        <rect x="4" y="10" width="16" height="10" rx="2" fill="none" stroke="#059669" stroke-width="1.8"/>
        <path d="M8 14h8" fill="none" stroke="#059669" stroke-width="1.5" stroke-linecap="round"/>
      </g>
      <text x="1440" y="1028" font-family="Inter, Helvetica, Arial, sans-serif" font-size="16" font-weight="700" fill="#1E293B">llm_usage_logs</text>
      <text x="1440" y="1050" font-family="Inter, Helvetica, Arial, sans-serif" font-size="12" fill="#64748B">Cost tracking per tenant</text>
    </g>

    <!-- ML Models -->
    <g filter="url(#softShadow)">
      <rect x="1650" y="1000" width="250" height="70" rx="14" fill="#FFFFFF" stroke="#A7F3D0" stroke-width="1.5"/>
      <rect x="1668" y="1014" width="40" height="40" rx="12" fill="#ECFDF5"/>
      <g transform="translate(1676, 1022)">
        <path d="M10 18L14 10L18 14L22 6" fill="none" stroke="#059669" stroke-width="1.8" stroke-linecap="round" stroke-linejoin="round"/>
      </g>
      <text x="1720" y="1028" font-family="Inter, Helvetica, Arial, sans-serif" font-size="16" font-weight="700" fill="#1E293B">ML Model Store</text>
      <text x="1720" y="1050" font-family="Inter, Helvetica, Arial, sans-serif" font-size="12" fill="#64748B">Ridge .pkl + scaler + encoder</text>
    </g>
  </g>

  <!-- Down Arrow L5 -> L6 -->
  <path d="M1100 1090 L1100 1110" stroke="#94A3B8" stroke-width="2.5" marker-end="url(#arrowDown)" opacity="0.5"/>

  <!-- ================================================================ -->
  <!-- LAYER 6: SECURITY & PLATFORM                                     -->
  <!-- ================================================================ -->
  <g id="layer-sec" filter="url(#layerShadow)">
    <rect x="60" y="1120" width="2080" height="120" rx="18" fill="url(#layerSecGrad)" stroke="#CBD5E1" stroke-width="1.5"/>
    <rect x="80" y="1132" width="30" height="96" rx="8" fill="#475569"/>
    <text x="95" y="1193" text-anchor="middle" font-family="Inter, Helvetica, Arial, sans-serif" font-size="12" font-weight="700" fill="#FFFFFF" transform="rotate(-90, 95, 1193)">L6</text>
    <text x="130" y="1152" font-family="Inter, Helvetica, Arial, sans-serif" font-size="14" font-weight="700" fill="#334155" letter-spacing="2">SECURITY &amp; PLATFORM LAYER</text>

    <!-- Data Sanitizer -->
    <g filter="url(#softShadow)">
      <rect x="130" y="1168" width="230" height="54" rx="12" fill="#FFFFFF" stroke="#CBD5E1" stroke-width="1"/>
      <text x="245" y="1192" text-anchor="middle" font-family="Inter, Helvetica, Arial, sans-serif" font-size="14" font-weight="700" fill="#1E293B">Data Sanitizer</text>
      <text x="245" y="1210" text-anchor="middle" font-family="Inter, Helvetica, Arial, sans-serif" font-size="11" fill="#64748B">Input/output cleaning</text>
    </g>

    <!-- Rate Limiter -->
    <g filter="url(#softShadow)">
      <rect x="390" y="1168" width="230" height="54" rx="12" fill="#FFFFFF" stroke="#CBD5E1" stroke-width="1"/>
      <text x="505" y="1192" text-anchor="middle" font-family="Inter, Helvetica, Arial, sans-serif" font-size="14" font-weight="700" fill="#1E293B">Rate Limiter</text>
      <text x="505" y="1210" text-anchor="middle" font-family="Inter, Helvetica, Arial, sans-serif" font-size="11" fill="#64748B">Per-tenant throttling</text>
    </g>

    <!-- Audit Logger -->
    <g filter="url(#softShadow)">
      <rect x="650" y="1168" width="230" height="54" rx="12" fill="#FFFFFF" stroke="#CBD5E1" stroke-width="1"/>
      <text x="765" y="1192" text-anchor="middle" font-family="Inter, Helvetica, Arial, sans-serif" font-size="14" font-weight="700" fill="#1E293B">Audit Logger</text>
      <text x="765" y="1210" text-anchor="middle" font-family="Inter, Helvetica, Arial, sans-serif" font-size="11" fill="#64748B">Tenant-aware logging</text>
    </g>

    <!-- Prometheus Metrics -->
    <g filter="url(#softShadow)">
      <rect x="910" y="1168" width="250" height="54" rx="12" fill="#FFFFFF" stroke="#CBD5E1" stroke-width="1"/>
      <text x="1035" y="1192" text-anchor="middle" font-family="Inter, Helvetica, Arial, sans-serif" font-size="14" font-weight="700" fill="#1E293B">Prometheus Metrics</text>
      <text x="1035" y="1210" text-anchor="middle" font-family="Inter, Helvetica, Arial, sans-serif" font-size="11" fill="#64748B">Observability + tracing</text>
    </g>

    <!-- Language Policy -->
    <g filter="url(#softShadow)">
      <rect x="1190" y="1168" width="230" height="54" rx="12" fill="#FFFFFF" stroke="#CBD5E1" stroke-width="1"/>
      <text x="1305" y="1192" text-anchor="middle" font-family="Inter, Helvetica, Arial, sans-serif" font-size="14" font-weight="700" fill="#1E293B">Language Policy</text>
      <text x="1305" y="1210" text-anchor="middle" font-family="Inter, Helvetica, Arial, sans-serif" font-size="11" fill="#64748B">English-only enforcement</text>
    </g>

    <!-- Secret Manager -->
    <g filter="url(#softShadow)">
      <rect x="1450" y="1168" width="230" height="54" rx="12" fill="#FFFFFF" stroke="#CBD5E1" stroke-width="1"/>
      <text x="1565" y="1192" text-anchor="middle" font-family="Inter, Helvetica, Arial, sans-serif" font-size="14" font-weight="700" fill="#1E293B">Secret Manager</text>
      <text x="1565" y="1210" text-anchor="middle" font-family="Inter, Helvetica, Arial, sans-serif" font-size="11" fill="#64748B">Env + credential vault</text>
    </g>

    <!-- Memory Guard -->
    <g filter="url(#softShadow)">
      <rect x="1710" y="1168" width="230" height="54" rx="12" fill="#FFFFFF" stroke="#CBD5E1" stroke-width="1"/>
      <text x="1825" y="1192" text-anchor="middle" font-family="Inter, Helvetica, Arial, sans-serif" font-size="14" font-weight="700" fill="#1E293B">Memory Guard</text>
      <text x="1825" y="1210" text-anchor="middle" font-family="Inter, Helvetica, Arial, sans-serif" font-size="11" fill="#64748B">GC + request rejection</text>
    </g>
  </g>

  <!-- ================================================================ -->
  <!-- RIGHT SIDEBAR: Cross-Cutting Concerns                           -->
  <!-- ================================================================ -->
  <g id="crosscut">
    <rect x="2180" y="120" width="180" height="1120" rx="16" fill="url(#crosscutGrad)" stroke="#334155" stroke-width="1.5"/>
    <text x="2270" y="156" text-anchor="middle" font-family="Inter, Helvetica, Arial, sans-serif" font-size="11" font-weight="700" fill="#94A3B8" letter-spacing="2">CROSS-CUTTING</text>

    <!-- Config -->
    <rect x="2198" y="180" width="144" height="50" rx="10" fill="rgba(255,255,255,0.08)" stroke="rgba(255,255,255,0.15)" stroke-width="1"/>
    <text x="2270" y="203" text-anchor="middle" font-family="Inter, Helvetica, Arial, sans-serif" font-size="14" font-weight="700" fill="#E2E8F0">Configuration</text>
    <text x="2270" y="221" text-anchor="middle" font-family="Inter, Helvetica, Arial, sans-serif" font-size="11" fill="#94A3B8">Pydantic Settings</text>

    <!-- Env Vars -->
    <rect x="2198" y="250" width="144" height="50" rx="10" fill="rgba(255,255,255,0.08)" stroke="rgba(255,255,255,0.15)" stroke-width="1"/>
    <text x="2270" y="273" text-anchor="middle" font-family="Inter, Helvetica, Arial, sans-serif" font-size="14" font-weight="700" fill="#E2E8F0">Environment</text>
    <text x="2270" y="291" text-anchor="middle" font-family="Inter, Helvetica, Arial, sans-serif" font-size="11" fill="#94A3B8">.env + overrides</text>

    <!-- Thread Safety -->
    <rect x="2198" y="320" width="144" height="50" rx="10" fill="rgba(255,255,255,0.08)" stroke="rgba(255,255,255,0.15)" stroke-width="1"/>
    <text x="2270" y="343" text-anchor="middle" font-family="Inter, Helvetica, Arial, sans-serif" font-size="14" font-weight="700" fill="#E2E8F0">Thread Safety</text>
    <text x="2270" y="361" text-anchor="middle" font-family="Inter, Helvetica, Arial, sans-serif" font-size="11" fill="#94A3B8">Lazy init + locks</text>

    <!-- Docker -->
    <rect x="2198" y="390" width="144" height="50" rx="10" fill="rgba(255,255,255,0.08)" stroke="rgba(255,255,255,0.15)" stroke-width="1"/>
    <text x="2270" y="413" text-anchor="middle" font-family="Inter, Helvetica, Arial, sans-serif" font-size="14" font-weight="700" fill="#E2E8F0">Docker</text>
    <text x="2270" y="431" text-anchor="middle" font-family="Inter, Helvetica, Arial, sans-serif" font-size="11" fill="#94A3B8">Sandbox + PG16</text>

    <!-- CI/CD -->
    <rect x="2198" y="460" width="144" height="50" rx="10" fill="rgba(255,255,255,0.08)" stroke="rgba(255,255,255,0.15)" stroke-width="1"/>
    <text x="2270" y="483" text-anchor="middle" font-family="Inter, Helvetica, Arial, sans-serif" font-size="14" font-weight="700" fill="#E2E8F0">CI / CD</text>
    <text x="2270" y="501" text-anchor="middle" font-family="Inter, Helvetica, Arial, sans-serif" font-size="11" fill="#94A3B8">11-gate release</text>

    <!-- Testing -->
    <rect x="2198" y="530" width="144" height="50" rx="10" fill="rgba(255,255,255,0.08)" stroke="rgba(255,255,255,0.15)" stroke-width="1"/>
    <text x="2270" y="553" text-anchor="middle" font-family="Inter, Helvetica, Arial, sans-serif" font-size="14" font-weight="700" fill="#E2E8F0">Testing</text>
    <text x="2270" y="571" text-anchor="middle" font-family="Inter, Helvetica, Arial, sans-serif" font-size="11" fill="#94A3B8">70% coverage gate</text>

    <!-- Python -->
    <rect x="2198" y="600" width="144" height="50" rx="10" fill="rgba(255,255,255,0.08)" stroke="rgba(255,255,255,0.15)" stroke-width="1"/>
    <text x="2270" y="623" text-anchor="middle" font-family="Inter, Helvetica, Arial, sans-serif" font-size="14" font-weight="700" fill="#E2E8F0">Python 3.13</text>
    <text x="2270" y="641" text-anchor="middle" font-family="Inter, Helvetica, Arial, sans-serif" font-size="11" fill="#94A3B8">PaddleOCR compat</text>
  </g>

  <!-- ================================================================ -->
  <!-- BOTTOM: TECH STACK SUMMARY                                       -->
  <!-- ================================================================ -->
  <g id="tech-summary">
    <rect x="60" y="1280" width="2300" height="80" rx="16" fill="#FFFFFF" stroke="#E2E8F0" stroke-width="1.5" filter="url(#softShadow)"/>
    <text x="90" y="1306" font-family="Inter, Helvetica, Arial, sans-serif" font-size="12" font-weight="700" fill="#94A3B8" letter-spacing="3">TECH STACK</text>

    <!-- Pills row -->
    <rect x="90" y="1318" width="110" height="30" rx="15" fill="#EFF6FF" stroke="#BFDBFE" stroke-width="1"/>
    <text x="145" y="1338" text-anchor="middle" font-family="Inter, Helvetica, Arial, sans-serif" font-size="13" font-weight="600" fill="#2563EB">FastAPI</text>

    <rect x="215" y="1318" width="130" height="30" rx="15" fill="#EDE9FE" stroke="#C4B5FD" stroke-width="1"/>
    <text x="280" y="1338" text-anchor="middle" font-family="Inter, Helvetica, Arial, sans-serif" font-size="13" font-weight="600" fill="#7C3AED">LangGraph</text>

    <rect x="360" y="1318" width="150" height="30" rx="15" fill="#ECFDF5" stroke="#A7F3D0" stroke-width="1"/>
    <text x="435" y="1338" text-anchor="middle" font-family="Inter, Helvetica, Arial, sans-serif" font-size="13" font-weight="600" fill="#059669">PostgreSQL</text>

    <rect x="525" y="1318" width="110" height="30" rx="15" fill="#ECFDF5" stroke="#A7F3D0" stroke-width="1"/>
    <text x="580" y="1338" text-anchor="middle" font-family="Inter, Helvetica, Arial, sans-serif" font-size="13" font-weight="600" fill="#059669">pgvector</text>

    <rect x="650" y="1318" width="100" height="30" rx="15" fill="#FEF3C7" stroke="#FDE68A" stroke-width="1"/>
    <text x="700" y="1338" text-anchor="middle" font-family="Inter, Helvetica, Arial, sans-serif" font-size="13" font-weight="600" fill="#D97706">Ollama</text>

    <rect x="765" y="1318" width="140" height="30" rx="15" fill="#FEF3C7" stroke="#FDE68A" stroke-width="1"/>
    <text x="835" y="1338" text-anchor="middle" font-family="Inter, Helvetica, Arial, sans-serif" font-size="13" font-weight="600" fill="#D97706">Qwen 3.5</text>

    <rect x="920" y="1318" width="120" height="30" rx="15" fill="#FDF4FF" stroke="#E9D5FF" stroke-width="1"/>
    <text x="980" y="1338" text-anchor="middle" font-family="Inter, Helvetica, Arial, sans-serif" font-size="13" font-weight="600" fill="#9333EA">Docker</text>

    <rect x="1055" y="1318" width="140" height="30" rx="15" fill="#EFF6FF" stroke="#BFDBFE" stroke-width="1"/>
    <text x="1125" y="1338" text-anchor="middle" font-family="Inter, Helvetica, Arial, sans-serif" font-size="13" font-weight="600" fill="#2563EB">Next.js</text>

    <rect x="1210" y="1318" width="150" height="30" rx="15" fill="#EFF6FF" stroke="#BFDBFE" stroke-width="1"/>
    <text x="1285" y="1338" text-anchor="middle" font-family="Inter, Helvetica, Arial, sans-serif" font-size="13" font-weight="600" fill="#2563EB">TypeScript</text>

    <rect x="1375" y="1318" width="150" height="30" rx="15" fill="#F1F5F9" stroke="#CBD5E1" stroke-width="1"/>
    <text x="1450" y="1338" text-anchor="middle" font-family="Inter, Helvetica, Arial, sans-serif" font-size="13" font-weight="600" fill="#475569">scikit-learn</text>

    <rect x="1540" y="1318" width="150" height="30" rx="15" fill="#FEF2F2" stroke="#FECACA" stroke-width="1"/>
    <text x="1615" y="1338" text-anchor="middle" font-family="Inter, Helvetica, Arial, sans-serif" font-size="13" font-weight="600" fill="#DC2626">PaddleOCR</text>

    <rect x="1705" y="1318" width="160" height="30" rx="15" fill="#ECFDF5" stroke="#A7F3D0" stroke-width="1"/>
    <text x="1785" y="1338" text-anchor="middle" font-family="Inter, Helvetica, Arial, sans-serif" font-size="13" font-weight="600" fill="#059669">fastembed</text>

    <rect x="1880" y="1318" width="200" height="30" rx="15" fill="#F1F5F9" stroke="#CBD5E1" stroke-width="1"/>
    <text x="1980" y="1338" text-anchor="middle" font-family="Inter, Helvetica, Arial, sans-serif" font-size="13" font-weight="600" fill="#475569">bge-reranker-base</text>

    <rect x="2095" y="1318" width="140" height="30" rx="15" fill="#F1F5F9" stroke="#CBD5E1" stroke-width="1"/>
    <text x="2165" y="1338" text-anchor="middle" font-family="Inter, Helvetica, Arial, sans-serif" font-size="13" font-weight="600" fill="#475569">Python 3.13</text>
  </g>

  <!-- Decorative corners -->
  <circle cx="2360" cy="1560" r="80" fill="#4F46E5" opacity="0.03"/>
  <circle cx="40" cy="1560" r="60" fill="#059669" opacity="0.03"/>
</svg>